<?xml version="1.0" encoding="UTF-8"?>
<svg version="1.1" xmlns="http://www.w3.org/2000/svg" width="1887" height="640">
<path d="M0 0 C1.79158489 -0.02696365 3.58328473 -0.04637917 5.375 -0.0625 C6.37273438 -0.07410156 7.37046875 -0.08570313 8.3984375 -0.09765625 C11 0 11 0 13 1 C15.90323951 1.14507785 18.78625973 1.23427786 21.69140625 1.28125 C22.55185043 1.29965942 23.41229462 1.31806885 24.29881287 1.33703613 C27.98968831 1.41588195 31.68074912 1.48360175 35.37182617 1.55224609 C38.06178174 1.60384401 40.75157392 1.66113629 43.44140625 1.71875 C44.70386925 1.73911316 44.70386925 1.73911316 45.99183655 1.7598877 C51.88717458 1.88717458 51.88717458 1.88717458 53 3 C55.79810928 3.14783039 58.57467636 3.23505316 61.375 3.28125 C62.21466309 3.29965942 63.05432617 3.31806885 63.91943359 3.33703613 C66.61288236 3.39597566 69.30639521 3.44871607 72 3.5 C75.54180815 3.567433 79.08340276 3.64110128 82.625 3.71875 C83.85935791 3.73911316 83.85935791 3.73911316 85.11865234 3.7598877 C90.88719819 3.88719819 90.88719819 3.88719819 92 5 C94.88252645 5.16023562 97.74378527 5.25954029 100.62890625 5.31640625 C101.49313705 5.33718735 102.35736786 5.35796844 103.24778748 5.37937927 C106.01927445 5.44497114 108.79085921 5.50380418 111.5625 5.5625 C113.43685923 5.60567608 115.31120843 5.64929006 117.18554688 5.69335938 C121.79026336 5.80066227 126.39507858 5.90190215 131 6 C131 6.66 131 7.32 131 8 C132.76428345 7.99214478 132.76428345 7.99214478 134.56420898 7.98413086 C138.91202031 7.96608337 143.2598283 7.95456892 147.60766602 7.94506836 C149.4924373 7.94002756 151.37720465 7.93319502 153.26196289 7.92456055 C155.96501636 7.91248383 158.66801831 7.90676932 161.37109375 7.90234375 C162.21900986 7.89718246 163.06692596 7.89202118 163.9405365 7.88670349 C165.96071068 7.88650805 167.98077934 7.93793789 170 8 C170.33 8.33 170.66 8.66 171 9 C174.42501072 9.23659614 177.84280568 9.39673972 181.2734375 9.51757812 C183.18686533 9.60910491 185.09512839 9.79739852 187 10 C188.58696844 13.17393689 188.1431447 16.58174205 188.125 20.0625 C188.12886719 20.80822266 188.13273437 21.55394531 188.13671875 22.32226562 C188.12663501 27.87336499 188.12663501 27.87336499 187 29 C186.85492735 30.62122423 186.7728999 32.24819889 186.71875 33.875 C186.66267578 35.35226563 186.66267578 35.35226563 186.60546875 36.859375 C186.55326172 38.41398437 186.55326172 38.41398437 186.5 40 C186.43143151 42.04181732 186.35874142 44.08350185 186.28125 46.125 C186.23581055 47.49011719 186.23581055 47.49011719 186.18945312 48.8828125 C186 51 186 51 185 52 C184.85469013 53.69428307 184.77283477 55.39410742 184.71875 57.09375 C184.66267578 58.63869141 184.66267578 58.63869141 184.60546875 60.21484375 C184.55326172 61.84099609 184.55326172 61.84099609 184.5 63.5 C184.43143859 65.63556094 184.35874988 67.77099476 184.28125 69.90625 C184.23581055 71.33420898 184.23581055 71.33420898 184.18945312 72.79101562 C184 75 184 75 183 76 C182.85492735 77.62122423 182.7728999 79.24819889 182.71875 80.875 C182.66267578 82.35226563 182.66267578 82.35226563 182.60546875 83.859375 C182.55326172 85.41398437 182.55326172 85.41398437 182.5 87 C182.43143151 89.04181732 182.35874142 91.08350185 182.28125 93.125 C182.23581055 94.49011719 182.23581055 94.49011719 182.18945312 95.8828125 C182 98 182 98 181 99 C180.84285346 100.63256758 180.74914586 102.27135338 180.68359375 103.91015625 C180.62075195 105.39418945 180.62075195 105.39418945 180.55664062 106.90820312 C180.49766602 108.46958008 180.49766602 108.46958008 180.4375 110.0625 C180.39431641 111.10728516 180.35113281 112.15207031 180.30664062 113.22851562 C180.20018775 115.81886884 180.0981724 118.40932186 180 121 C179.34 121 178.68 121 178 121 C178 128.59 178 136.18 178 144 C177.34 144 176.68 144 176 144 C176.00523682 144.59200195 176.01047363 145.18400391 176.01586914 145.79394531 C176.09825534 156.6188667 176.09865803 167.43329981 175.625 178.25 C175.59414307 179.08821289 175.56328613 179.92642578 175.53149414 180.79003906 C175.33910722 184.64097716 175.18055294 186.7291706 173 190 C170.6171875 190.29296875 170.6171875 190.29296875 167.875 190.1875 C166.96492188 190.16042969 166.05484375 190.13335937 165.1171875 190.10546875 C164.41851563 190.07066406 163.71984375 190.03585938 163 190 C163 189.34 163 188.68 163 188 C162.2575 187.855625 161.515 187.71125 160.75 187.5625 C158.47972261 187.09812508 156.24240521 186.58136431 154 186 C154 185.34 154 184.68 154 184 C152.68 184 151.36 184 150 184 C150 183.34 150 182.68 150 182 C148.68 182 147.36 182 146 182 C146 181.34 146 180.68 146 180 C144.68 180 143.36 180 142 180 C142 179.34 142 178.68 142 178 C140.783125 177.87625 139.56625 177.7525 138.3125 177.625 C134.93520941 177.21108694 132.10243305 176.45426549 129 175 C129 174.34 129 173.68 129 173 C127.68 173 126.36 173 125 173 C125 172.34 125 171.68 125 171 C124.01 171 123.02 171 122 171 C122 170.34 122 169.68 122 169 C121.0925 168.855625 120.185 168.71125 119.25 168.5625 C116.78523044 168.13590527 114.41152893 167.64925779 112 167 C112 166.34 112 165.68 112 165 C110.68 165 109.36 165 108 165 C108 164.34 108 163.68 108 163 C106.68 163 105.36 163 104 163 C104 163.66 104 164.32 104 165 C103.34 165 102.68 165 102 165 C101.34 166.32 100.68 167.64 100 169 C99.01 169 98.02 169 97 169 C97 169.66 97 170.32 97 171 C96.34 171 95.68 171 95 171 C95 171.66 95 172.32 95 173 C94.34 173 93.68 173 93 173 C93 173.66 93 174.32 93 175 C90.04518508 177.74375671 89.22528092 178 85 178 C85 178.66 85 179.32 85 180 C84.34 180 83.68 180 83 180 C82.67 181.32 82.34 182.64 82 184 C81.34 184 80.68 184 80 184 C80 184.66 80 185.32 80 186 C77.03 186.99 77.03 186.99 74 188 C74 188.66 74 189.32 74 190 C73.34 190 72.68 190 72 190 C72 190.66 72 191.32 72 192 C71.34 192 70.68 192 70 192 C70 192.66 70 193.32 70 194 C65.61538462 197 65.61538462 197 63 197 C63 197.66 63 198.32 63 199 C62.34 199 61.68 199 61 199 C61 199.66 61 200.32 61 201 C60.34 201 59.68 201 59 201 C59 201.66 59 202.32 59 203 C58.34 203 57.68 203 57 203 C57 203.66 57 204.32 57 205 C55.68 205 54.36 205 53 205 C53 205.66 53 206.32 53 207 C52.34 207 51.68 207 51 207 C51 207.66 51 208.32 51 209 C50.34 209 49.68 209 49 209 C49 209.66 49 210.32 49 211 C48.34 211 47.68 211 47 211 C47 211.66 47 212.32 47 213 C45.35 213.33 43.7 213.66 42 214 C42 214.66 42 215.32 42 216 C41.34 216 40.68 216 40 216 C40 216.66 40 217.32 40 218 C39.34 218 38.68 218 38 218 C38 218.66 38 219.32 38 220 C37.34 220 36.68 220 36 220 C36 220.66 36 221.32 36 222 C34.68 222 33.36 222 32 222 C32 222.66 32 223.32 32 224 C31.34 224 30.68 224 30 224 C29.9071875 224.86625 29.9071875 224.86625 29.8125 225.75 C28.64473159 228.98382021 26.83624161 230.13065894 24 232 C21.1875 232.75 21.1875 232.75 19 233 C19 233.66 19 234.32 19 235 C18.34 235 17.68 235 17 235 C17 235.66 17 236.32 17 237 C16.34 237 15.68 237 15 237 C15 237.66 15 238.32 15 239 C14.34 239 13.68 239 13 239 C13 239.66 13 240.32 13 241 C12.01 241 11.02 241 10 241 C10 241.66 10 242.32 10 243 C9.34 243 8.68 243 8 243 C8 243.66 8 244.32 8 245 C7.34 245 6.68 245 6 245 C6 245.66 6 246.32 6 247 C4.3203125 248.2890625 4.3203125 248.2890625 2.125 249.625 C1.40570312 250.07101562 0.68640625 250.51703125 -0.0546875 250.9765625 C-2 252 -2 252 -4 252 C-4 252.66 -4 253.32 -4 254 C-4.66 254 -5.32 254 -6 254 C-6 254.66 -6 255.32 -6 256 C-6.66 256 -7.32 256 -8 256 C-8 256.66 -8 257.32 -8 258 C-8.99 258 -9.98 258 -11 258 C-11 258.66 -11 259.32 -11 260 C-11.66 260 -12.32 260 -13 260 C-13 260.66 -13 261.32 -13 262 C-13.66 262 -14.32 262 -15 262 C-15 262.66 -15 263.32 -15 264 C-15.66 264 -16.32 264 -17 264 C-17 264.66 -17 265.32 -17 266 C-17.66 266 -18.32 266 -19 266 C-19 266.66 -19 267.32 -19 268 C-20.32 268 -21.64 268 -23 268 C-23 268.66 -23 269.32 -23 270 C-24.375 271.625 -24.375 271.625 -26 273 C-26.66 273 -27.32 273 -28 273 C-28 273.66 -28 274.32 -28 275 C-31 277 -31 277 -34 277 C-34 277.66 -34 278.32 -34 279 C-34.66 279 -35.32 279 -36 279 C-36 279.66 -36 280.32 -36 281 C-36.66 281 -37.32 281 -38 281 C-38 281.66 -38 282.32 -38 283 C-38.66 283 -39.32 283 -40 283 C-40 283.66 -40 284.32 -40 285 C-44.38461538 288 -44.38461538 288 -47 288 C-47 288.66 -47 289.32 -47 290 C-47.66 290 -48.32 290 -49 290 C-49 290.66 -49 291.32 -49 292 C-49.66 292 -50.32 292 -51 292 C-51 292.66 -51 293.32 -51 294 C-52.32 294 -53.64 294 -55 294 C-55 294.66 -55 295.32 -55 296 C-55.66 296 -56.32 296 -57 296 C-57 296.66 -57 297.32 -57 298 C-57.66 298 -58.32 298 -59 298 C-59 298.66 -59 299.32 -59 300 C-59.66 300 -60.32 300 -61 300 C-61 300.66 -61 301.32 -61 302 C-61.66 302 -62.32 302 -63 302 C-63 302.66 -63 303.32 -63 304 C-63.99 304 -64.98 304 -66 304 C-66 304.66 -66 305.32 -66 306 C-67.32 306.33 -68.64 306.66 -70 307 C-70 307.66 -70 308.32 -70 309 C-70.66 309 -71.32 309 -72 309 C-72 309.66 -72 310.32 -72 311 C-72.66 311 -73.32 311 -74 311 C-74 311.66 -74 312.32 -74 313 C-75.32 313 -76.64 313 -78 313 C-78 313.66 -78 314.32 -78 315 C-78.66 315 -79.32 315 -80 315 C-80.226875 315.5775 -80.45375 316.155 -80.6875 316.75 C-82.34848222 319.59739809 -84.31524561 321.12067193 -87 323 C-87.66 323 -88.32 323 -89 323 C-89 323.66 -89 324.32 -89 325 C-90.32 325.33 -91.64 325.66 -93 326 C-93 326.66 -93 327.32 -93 328 C-93.66 328 -94.32 328 -95 328 C-95 328.66 -95 329.32 -95 330 C-96.32 330 -97.64 330 -99 330 C-99.33 331.32 -99.66 332.64 -100 334 C-100.66 334 -101.32 334 -102 334 C-102 334.66 -102 335.32 -102 336 C-102.66 336 -103.32 336 -104 336 C-104 336.66 -104 337.32 -104 338 C-107 340 -107 340 -110 340 C-110 340.66 -110 341.32 -110 342 C-110.66 342 -111.32 342 -112 342 C-112 342.66 -112 343.32 -112 344 C-113.32 344.33 -114.64 344.66 -116 345 C-116 345.66 -116 346.32 -116 347 C-116.66 347 -117.32 347 -118 347 C-118 347.66 -118 348.32 -118 349 C-118.99 349 -119.98 349 -121 349 C-121 349.66 -121 350.32 -121 351 C-121.66 351 -122.32 351 -123 351 C-123 351.66 -123 352.32 -123 353 C-123.66 353 -124.32 353 -125 353 C-125 353.66 -125 354.32 -125 355 C-125.66 355 -126.32 355 -127 355 C-127 355.66 -127 356.32 -127 357 C-128.32 357 -129.64 357 -131 357 C-131 357.66 -131 358.32 -131 359 C-131.66 359 -132.32 359 -133 359 C-133 359.66 -133 360.32 -133 361 C-134.375 362.625 -134.375 362.625 -136 364 C-136.66 364 -137.32 364 -138 364 C-138 364.66 -138 365.32 -138 366 C-139.32 366 -140.64 366 -142 366 C-142 366.66 -142 367.32 -142 368 C-142.66 368 -143.32 368 -144 368 C-144 368.66 -144 369.32 -144 370 C-144.66 370 -145.32 370 -146 370 C-146 370.66 -146 371.32 -146 372 C-146.66 372 -147.32 372 -148 372 C-148 372.66 -148 373.32 -148 374 C-149.32 374 -150.64 374 -152 374 C-152 374.66 -152 375.32 -152 376 C-154.89845064 377.64840202 -156.96735684 378.24937583 -160.29370117 378.24291992 C-161.13104294 378.24599655 -161.9683847 378.24907318 -162.83110046 378.25224304 C-164.17347527 378.24146477 -164.17347527 378.24146477 -165.54296875 378.23046875 C-166.46717117 378.23001053 -167.3913736 378.22955231 -168.34358215 378.2290802 C-170.29278857 378.22606357 -172.2419927 378.21819491 -174.19116211 378.20581055 C-177.18677222 378.18750445 -180.18207406 378.18530127 -183.17773438 378.18554688 C-185.07031519 378.18063342 -186.9628939 378.17480586 -188.85546875 378.16796875 C-189.75645798 378.16685593 -190.6574472 378.1657431 -191.58573914 378.16459656 C-197.88393865 378.11606135 -197.88393865 378.11606135 -199 377 C-201.43445913 376.8525031 -203.84428567 376.76511465 -206.28125 376.71875 C-207.37427429 376.69113586 -207.37427429 376.69113586 -208.48937988 376.66296387 C-210.82616893 376.6040406 -213.16303173 376.55129346 -215.5 376.5 C-218.57307911 376.43254985 -221.64591316 376.35888207 -224.71875 376.28125 C-225.43228638 376.26767456 -226.14582275 376.25409912 -226.88098145 376.2401123 C-231.88719819 376.11280181 -231.88719819 376.11280181 -233 375 C-235.50716838 374.85243002 -237.99039049 374.7650766 -240.5 374.71875 C-241.62631836 374.69113586 -241.62631836 374.69113586 -242.77539062 374.66296387 C-245.18351187 374.60403696 -247.59170471 374.55129132 -250 374.5 C-253.16682444 374.4325537 -256.33341084 374.3588858 -259.5 374.28125 C-260.23541016 374.26767456 -260.97082031 374.25409912 -261.72851562 374.2401123 C-266.88719819 374.11280181 -266.88719819 374.11280181 -268 373 C-270.50716838 372.85243002 -272.99039049 372.7650766 -275.5 372.71875 C-276.62631836 372.69113586 -276.62631836 372.69113586 -277.77539062 372.66296387 C-280.18351187 372.60403696 -282.59170471 372.55129132 -285 372.5 C-288.16682444 372.4325537 -291.33341084 372.3588858 -294.5 372.28125 C-295.23541016 372.26767456 -295.97082031 372.25409912 -296.72851562 372.2401123 C-301.88719819 372.11280181 -301.88719819 372.11280181 -303 371 C-305.51880517 370.84011509 -308.01342266 370.74065775 -310.53515625 370.68359375 C-311.66503212 370.6524221 -311.66503212 370.6524221 -312.81773376 370.62062073 C-315.2325599 370.55504575 -317.64749798 370.49620379 -320.0625 370.4375 C-321.69597529 370.3943223 -323.3294391 370.35070827 -324.96289062 370.30664062 C-328.97514464 370.19935638 -332.98751164 370.09811179 -337 370 C-337 369.34 -337 368.68 -337 368 C-338.53708618 368.00785522 -338.53708618 368.00785522 -340.10522461 368.01586914 C-343.89395276 368.03391969 -347.68267709 368.0454322 -351.47143555 368.05493164 C-353.11369464 368.05997174 -354.75594923 368.06680378 -356.39819336 368.07543945 C-358.75375479 368.08751926 -361.10925709 368.09323139 -363.46484375 368.09765625 C-364.20339096 368.10281754 -364.94193817 368.10797882 -365.7028656 368.11329651 C-367.46898088 368.1134925 -369.23497146 368.06194719 -371 368 C-371.33 367.67 -371.66 367.34 -372 367 C-374.59153107 366.84003834 -377.1595202 366.74061303 -379.75390625 366.68359375 C-380.52935287 366.66281265 -381.3047995 366.64203156 -382.10374451 366.62062073 C-384.58990308 366.55504198 -387.07617045 366.49620201 -389.5625 366.4375 C-391.24415204 366.39432267 -392.92579294 366.35070864 -394.60742188 366.30664062 C-398.73816871 366.19935221 -402.86902536 366.09810868 -407 366 C-407 365.34 -407 364.68 -407 364 C-415.91 364 -424.82 364 -434 364 C-434 364.66 -434 365.32 -434 366 C-434.66 366 -435.32 366 -436 366 C-436 366.66 -436 367.32 -436 368 C-436.66 368 -437.32 368 -438 368 C-438 368.66 -438 369.32 -438 370 C-438.66 370 -439.32 370 -440 370 C-440 370.66 -440 371.32 -440 372 C-441.32 372 -442.64 372 -444 372 C-444 372.66 -444 373.32 -444 374 C-444.66 374 -445.32 374 -446 374 C-446.268125 374.598125 -446.53625 375.19625 -446.8125 375.8125 C-447.99917406 377.99847854 -449.09599113 379.41332594 -451 381 C-451.66 381 -452.32 381 -453 381 C-453 381.66 -453 382.32 -453 383 C-453.66 383 -454.32 383 -455 383 C-455 383.66 -455 384.32 -455 385 C-458 387 -458 387 -461 387 C-461 387.66 -461 388.32 -461 389 C-461.66 389 -462.32 389 -463 389 C-463.07476563 389.58265625 -463.14953125 390.1653125 -463.2265625 390.765625 C-464.26931302 393.77801539 -465.85274004 394.83993906 -468.375 396.75 C-469.16648437 397.36359375 -469.95796875 397.9771875 -470.7734375 398.609375 C-473 400 -473 400 -476 400 C-476 400.66 -476 401.32 -476 402 C-476.66 402 -477.32 402 -478 402 C-478 402.66 -478 403.32 -478 404 C-478.66 404 -479.32 404 -480 404 C-480 404.66 -480 405.32 -480 406 C-480.66 406 -481.32 406 -482 406 C-482.3403125 406.86625 -482.3403125 406.86625 -482.6875 407.75 C-484.34848222 410.59739809 -486.31524561 412.12067193 -489 414 C-489.66 414 -490.32 414 -491 414 C-491 414.66 -491 415.32 -491 416 C-491.66 416 -492.32 416 -493 416 C-493 416.66 -493 417.32 -493 418 C-494.32 418.33 -495.64 418.66 -497 419 C-497 419.66 -497 420.32 -497 421 C-497.66 421 -498.32 421 -499 421 C-499 421.66 -499 422.32 -499 423 C-499.66 423 -500.32 423 -501 423 C-501 423.66 -501 424.32 -501 425 C-501.66 425 -502.32 425 -503 425 C-503 425.66 -503 426.32 -503 427 C-503.99 427 -504.98 427 -506 427 C-506 427.66 -506 428.32 -506 429 C-506.66 429 -507.32 429 -508 429 C-508 429.66 -508 430.32 -508 431 C-508.66 431 -509.32 431 -510 431 C-510 431.66 -510 432.32 -510 433 C-510.66 433 -511.32 433 -512 433 C-512 433.66 -512 434.32 -512 435 C-513.32 435.33 -514.64 435.66 -516 436 C-516 436.66 -516 437.32 -516 438 C-516.66 438 -517.32 438 -518 438 C-518 438.66 -518 439.32 -518 440 C-518.99 440 -519.98 440 -521 440 C-521 440.66 -521 441.32 -521 442 C-521.66 442 -522.32 442 -523 442 C-523 442.66 -523 443.32 -523 444 C-523.66 444 -524.32 444 -525 444 C-525 444.66 -525 445.32 -525 446 C-525.66 446 -526.32 446 -527 446 C-527 446.66 -527 447.32 -527 448 C-527.66 448 -528.32 448 -529 448 C-529 448.66 -529 449.32 -529 450 C-529.66 450 -530.32 450 -531 450 C-531 450.66 -531 451.32 -531 452 C-531.969375 452.45375 -532.93875 452.9075 -533.9375 453.375 C-537.07079582 454.65786221 -537.07079582 454.65786221 -538 457 C-538.66 457 -539.32 457 -540 457 C-540 457.66 -540 458.32 -540 459 C-540.66 459 -541.32 459 -542 459 C-542 459.66 -542 460.32 -542 461 C-542.66 461 -543.32 461 -544 461 C-544 461.66 -544 462.32 -544 463 C-544.66 463 -545.32 463 -546 463 C-546 463.66 -546 464.32 -546 465 C-549 467 -549 467 -552 467 C-552 467.66 -552 468.32 -552 469 C-552.66 469 -553.32 469 -554 469 C-554 469.66 -554 470.32 -554 471 C-554.66 471 -555.32 471 -556 471 C-556.33 471.99 -556.66 472.98 -557 474 C-557.66 474 -558.32 474 -559 474 C-559 474.66 -559 475.32 -559 476 C-559.66 476 -560.32 476 -561 476 C-561 476.66 -561 477.32 -561 478 C-561.66 478 -562.32 478 -563 478 C-563 478.66 -563 479.32 -563 480 C-564.32 480 -565.64 480 -567 480 C-567 480.66 -567 481.32 -567 482 C-567.66 482 -568.32 482 -569 482 C-569 482.66 -569 483.32 -569 484 C-569.66 484 -570.32 484 -571 484 C-571 484.66 -571 485.32 -571 486 C-571.66 486 -572.32 486 -573 486 C-573.268125 486.598125 -573.53625 487.19625 -573.8125 487.8125 C-575.02300334 490.04237457 -575.991379 491.45490692 -578 493 C-579.32 493 -580.64 493 -582 493 C-582 493.66 -582 494.32 -582 495 C-582.66 495 -583.32 495 -584 495 C-584 495.66 -584 496.32 -584 497 C-584.66 497 -585.32 497 -586 497 C-586 497.66 -586 498.32 -586 499 C-586.66 499 -587.32 499 -588 499 C-588 499.66 -588 500.32 -588 501 C-588.66 501 -589.32 501 -590 501 C-590 501.66 -590 502.32 -590 503 C-590.66 503 -591.32 503 -592 503 C-592 503.66 -592 504.32 -592 505 C-592.66 505 -593.32 505 -594 505 C-594 505.66 -594 506.32 -594 507 C-594.99 507 -595.98 507 -597 507 C-597 507.66 -597 508.32 -597 509 C-598.32 509.33 -599.64 509.66 -601 510 C-601 510.66 -601 511.32 -601 512 C-601.66 512 -602.32 512 -603 512 C-603 512.66 -603 513.32 -603 514 C-603.66 514 -604.32 514 -605 514 C-605 514.66 -605 515.32 -605 516 C-605.66 516 -606.32 516 -607 516 C-607 516.66 -607 517.32 -607 518 C-607.66 518 -608.32 518 -609 518 C-609 518.66 -609 519.32 -609 520 C-609.99 520 -610.98 520 -612 520 C-612 520.66 -612 521.32 -612 522 C-612.66 522 -613.32 522 -614 522 C-614 522.66 -614 523.32 -614 524 C-614.66 524 -615.32 524 -616 524 C-616 524.66 -616 525.32 -616 526 C-616.66 526 -617.32 526 -618 526 C-618 526.66 -618 527.32 -618 528 C-619.32 528.33 -620.64 528.66 -622 529 C-622 529.66 -622 530.32 -622 531 C-622.66 531 -623.32 531 -624 531 C-624 531.66 -624 532.32 -624 533 C-625.32 533 -626.64 533 -628 533 C-628 533.66 -628 534.32 -628 535 C-632.60209225 535.17700355 -634.78370866 535.10814567 -639 533 C-639 511.88 -639 490.76 -639 469 C-638.34 469 -637.68 469 -637 469 C-637 468.34 -637 467.68 -637 467 C-636.34 467 -635.68 467 -635 467 C-635 466.34 -635 465.68 -635 465 C-634.34 465 -633.68 465 -633 465 C-633 464.34 -633 463.68 -633 463 C-632.34 463 -631.68 463 -631 463 C-631 462.34 -631 461.68 -631 461 C-630.34 461 -629.68 461 -629 461 C-629 460.34 -629 459.68 -629 459 C-628.34 459 -627.68 459 -627 459 C-626.67 458.01 -626.34 457.02 -626 456 C-625.34 456 -624.68 456 -624 456 C-624 455.34 -624 454.68 -624 454 C-623.34 454 -622.68 454 -622 454 C-622 453.34 -622 452.68 -622 452 C-621.34 452 -620.68 452 -620 452 C-620 451.34 -620 450.68 -620 450 C-619.34 450 -618.68 450 -618 450 C-618 449.34 -618 448.68 -618 448 C-617.34 448 -616.68 448 -616 448 C-616 447.34 -616 446.68 -616 446 C-615.34 446 -614.68 446 -614 446 C-614 445.34 -614 444.68 -614 444 C-613.34 444 -612.68 444 -612 444 C-612 443.34 -612 442.68 -612 442 C-611.34 442 -610.68 442 -610 442 C-610 441.34 -610 440.68 -610 440 C-608.625 438.375 -608.625 438.375 -607 437 C-606.34 437 -605.68 437 -605 437 C-605 436.34 -605 435.68 -605 435 C-604.34 435 -603.68 435 -603 435 C-603 434.34 -603 433.68 -603 433 C-602.34 433 -601.68 433 -601 433 C-601 432.34 -601 431.68 -601 431 C-600.34 431 -599.68 431 -599 431 C-599 430.34 -599 429.68 -599 429 C-598.34 429 -597.68 429 -597 429 C-597 428.34 -597 427.68 -597 427 C-596.34 427 -595.68 427 -595 427 C-595 426.34 -595 425.68 -595 425 C-594.34 425 -593.68 425 -593 425 C-593 424.34 -593 423.68 -593 423 C-592.34 423 -591.68 423 -591 423 C-590.67 422.01 -590.34 421.02 -590 420 C-589.34 420 -588.68 420 -588 420 C-588 419.34 -588 418.68 -588 418 C-587.34 418 -586.68 418 -586 418 C-586 417.34 -586 416.68 -586 416 C-585.34 416 -584.68 416 -584 416 C-584 415.34 -584 414.68 -584 414 C-583.34 414 -582.68 414 -582 414 C-582 413.34 -582 412.68 -582 412 C-581.34 412 -580.68 412 -580 412 C-580 411.34 -580 410.68 -580 410 C-579.34 410 -578.68 410 -578 410 C-578 409.34 -578 408.68 -578 408 C-577.34 408 -576.68 408 -576 408 C-576 407.34 -576 406.68 -576 406 C-575.34 406 -574.68 406 -574 406 C-574 405.34 -574 404.68 -574 404 C-573.34 404 -572.68 404 -572 404 C-571.67 403.01 -571.34 402.02 -571 401 C-570.34 401 -569.68 401 -569 401 C-569 400.34 -569 399.68 -569 399 C-568.34 399 -567.68 399 -567 399 C-567 398.34 -567 397.68 -567 397 C-566.34 397 -565.68 397 -565 397 C-565 396.34 -565 395.68 -565 395 C-564.34 395 -563.68 395 -563 395 C-563 394.34 -563 393.68 -563 393 C-562.34 393 -561.68 393 -561 393 C-561 392.34 -561 391.68 -561 391 C-560.34 391 -559.68 391 -559 391 C-559 390.34 -559 389.68 -559 389 C-558.34 389 -557.68 389 -557 389 C-557 388.34 -557 387.68 -557 387 C-556.34 387 -555.68 387 -555 387 C-555 386.34 -555 385.68 -555 385 C-554.34 385 -553.68 385 -553 385 C-552.67 384.01 -552.34 383.02 -552 382 C-551.34 382 -550.68 382 -550 382 C-550 381.34 -550 380.68 -550 380 C-549.34 380 -548.68 380 -548 380 C-548 379.34 -548 378.68 -548 378 C-547.34 378 -546.68 378 -546 378 C-546 377.34 -546 376.68 -546 376 C-545.34 376 -544.68 376 -544 376 C-544 375.34 -544 374.68 -544 374 C-543.34 374 -542.68 374 -542 374 C-542 373.34 -542 372.68 -542 372 C-541.34 372 -540.68 372 -540 372 C-540 371.34 -540 370.68 -540 370 C-539.34 370 -538.68 370 -538 370 C-538 369.34 -538 368.68 -538 368 C-537.34 368 -536.68 368 -536 368 C-535.67 367.01 -535.34 366.02 -535 365 C-534.34 365 -533.68 365 -533 365 C-533 364.34 -533 363.68 -533 363 C-532.34 363 -531.68 363 -531 363 C-531 362.34 -531 361.68 -531 361 C-530.34 361 -529.68 361 -529 361 C-529 360.34 -529 359.68 -529 359 C-528.34 359 -527.68 359 -527 359 C-527 358.34 -527 357.68 -527 357 C-526.34 357 -525.68 357 -525 357 C-525 356.34 -525 355.68 -525 355 C-524.34 355 -523.68 355 -523 355 C-523 354.34 -523 353.68 -523 353 C-522.34 353 -521.68 353 -521 353 C-521 352.34 -521 351.68 -521 351 C-520.34 351 -519.68 351 -519 351 C-519 350.34 -519 349.68 -519 349 C-518.34 349 -517.68 349 -517 349 C-516.67 348.01 -516.34 347.02 -516 346 C-515.34 346 -514.68 346 -514 346 C-514 345.34 -514 344.68 -514 344 C-513.34 344 -512.68 344 -512 344 C-512 343.34 -512 342.68 -512 342 C-511.34 342 -510.68 342 -510 342 C-510 341.34 -510 340.68 -510 340 C-509.34 340 -508.68 340 -508 340 C-508 339.34 -508 338.68 -508 338 C-507.34 338 -506.68 338 -506 338 C-506 337.34 -506 336.68 -506 336 C-505.34 336 -504.68 336 -504 336 C-504 335.34 -504 334.68 -504 334 C-503.34 334 -502.68 334 -502 334 C-502 333.34 -502 332.68 -502 332 C-501.34 332 -500.68 332 -500 332 C-500 331.34 -500 330.68 -500 330 C-499.34 330 -498.68 330 -498 330 C-497.67 329.01 -497.34 328.02 -497 327 C-496.34 327 -495.68 327 -495 327 C-495 326.34 -495 325.68 -495 325 C-494.34 325 -493.68 325 -493 325 C-493 324.34 -493 323.68 -493 323 C-492.34 323 -491.68 323 -491 323 C-490.34 321.35 -489.68 319.7 -489 318 C-488.34 318 -487.68 318 -487 318 C-487 317.34 -487 316.68 -487 316 C-486.34 316 -485.68 316 -485 316 C-485 315.34 -485 314.68 -485 314 C-484.34 314 -483.68 314 -483 314 C-482.7421875 313.42765625 -482.484375 312.8553125 -482.21875 312.265625 C-480.88634058 309.78871005 -479.34943882 307.8658834 -477.5 305.75 C-476.8915625 305.04359375 -476.283125 304.3371875 -475.65625 303.609375 C-474 302 -474 302 -472 302 C-472 301.34 -472 300.68 -472 300 C-471.34 300 -470.68 300 -470 300 C-470 299.34 -470 298.68 -470 298 C-469.34 298 -468.68 298 -468 298 C-468 297.34 -468 296.68 -468 296 C-467.34 296 -466.68 296 -466 296 C-466 295.34 -466 294.68 -466 294 C-464.01739574 292.31267723 -462.0167658 290.64633943 -460 289 C-459.67 288.34 -459.34 287.68 -459 287 C-458.34 287 -457.68 287 -457 287 C-457 286.34 -457 285.68 -457 285 C-456.34 285 -455.68 285 -455 285 C-455 284.34 -455 283.68 -455 283 C-454.34 283 -453.68 283 -453 283 C-453 282.34 -453 281.68 -453 281 C-452.34 281 -451.68 281 -451 281 C-451 280.34 -451 279.68 -451 279 C-450.34 279 -449.68 279 -449 279 C-449 278.34 -449 277.68 -449 277 C-448.34 277 -447.68 277 -447 277 C-447 276.34 -447 275.68 -447 275 C-440.491492 272.66139064 -434.25442051 272.65639138 -427.38623047 272.58935547 C-426.12837234 272.56955627 -424.87051422 272.54975708 -423.57453918 272.52935791 C-420.13831986 272.47551053 -416.70204656 272.43333768 -413.26564169 272.39335394 C-409.6534888 272.34936083 -406.04149695 272.29469208 -402.42947388 272.24124146 C-396.35865403 272.15286118 -390.2877757 272.07128172 -384.21679688 271.99462891 C-375.69454396 271.88702366 -367.17248513 271.76776339 -358.65042663 271.64583755 C-346.56376816 271.47349606 -334.47702667 271.30713365 -322.39013672 271.15185547 C-320.63932045 271.12851639 -320.63932045 271.12851639 -318.85313416 271.10470581 C-315.56878623 271.06346541 -312.28446491 271.03037118 -309 271 C-307.80717533 270.98534824 -306.61435066 270.97069649 -305.38537979 270.95560074 C-304.21890789 270.94649548 -303.05243599 270.93739021 -301.85061646 270.92800903 C-300.7996837 270.91777773 -299.74875095 270.90754642 -298.66597176 270.89700508 C-296 271 -296 271 -293 272 C-293 271.34 -293 270.68 -293 270 C-292.08767105 269.98969254 -291.1753421 269.97938507 -290.23536682 269.96876526 C-281.65609996 269.87096739 -273.07690493 269.76847872 -264.49775791 269.66066074 C-260.086666 269.60539168 -255.67556751 269.55196546 -251.2644043 269.50268555 C-247.01093013 269.45510055 -242.75753911 269.40276014 -238.50416374 269.34705925 C-236.87780757 269.32660902 -235.25142858 269.30790044 -233.62503242 269.29092598 C-231.35483637 269.26694073 -229.08479887 269.23687865 -226.81469727 269.20532227 C-224.87277245 269.18200584 -224.87277245 269.18200584 -222.89161682 269.15821838 C-220.10593983 269.32841258 -220.10593983 269.32841258 -219 268 C-217.4651703 267.90680551 -215.92607918 267.882542 -214.38842773 267.88647461 C-213.40748642 267.88655014 -212.4265451 267.88662567 -211.4158783 267.88670349 C-210.3492244 267.89186478 -209.2825705 267.89702606 -208.18359375 267.90234375 C-206.55430687 267.90446617 -206.55430687 267.90446617 -204.8921051 267.90663147 C-201.40720925 267.91224952 -197.92237658 267.92480508 -194.4375 267.9375 C-192.08138113 267.94251267 -189.72526126 267.94707598 -187.36914062 267.95117188 C-181.57940536 267.96222481 -175.78970719 267.97898049 -170 268 C-170 267.34 -170 266.68 -170 266 C-169.34 266 -168.68 266 -168 266 C-167.7628125 265.43796875 -167.525625 264.8759375 -167.28125 264.296875 C-165.71052303 261.48105958 -163.78528536 259.52044584 -161.5 257.25 C-160.7059375 256.45078125 -159.911875 255.6515625 -159.09375 254.828125 C-157 253 -157 253 -155 253 C-155 252.34 -155 251.68 -155 251 C-154.34 251 -153.68 251 -153 251 C-152.731875 250.4225 -152.46375 249.845 -152.1875 249.25 C-150.97070811 246.94449957 -149.69666121 244.97943808 -148 243 C-147.34 243 -146.68 243 -146 243 C-146 242.34 -146 241.68 -146 241 C-145.34 241 -144.68 241 -144 241 C-144 240.34 -144 239.68 -144 239 C-143.34 239 -142.68 239 -142 239 C-142 238.34 -142 237.68 -142 237 C-141.34 237 -140.68 237 -140 237 C-140 236.34 -140 235.68 -140 235 C-138.68 234.67 -137.36 234.34 -136 234 C-136 233.34 -136 232.68 -136 232 C-135.34 232 -134.68 232 -134 232 C-133.67 230.68 -133.34 229.36 -133 228 C-132.34 228 -131.68 228 -131 228 C-131 227.34 -131 226.68 -131 226 C-130.34 226 -129.68 226 -129 226 C-129 225.34 -129 224.68 -129 224 C-128.34 224 -127.68 224 -127 224 C-127 223.34 -127 222.68 -127 222 C-126.34 222 -125.68 222 -125 222 C-125 221.34 -125 220.68 -125 220 C-124.34 220 -123.68 220 -123 220 C-123 219.34 -123 218.68 -123 218 C-121.02 217.505 -121.02 217.505 -119 217 C-119 216.34 -119 215.68 -119 215 C-118.34 215 -117.68 215 -117 215 C-117 214.34 -117 213.68 -117 213 C-116.34 213 -115.68 213 -115 213 C-114.67 211.68 -114.34 210.36 -114 209 C-113.34 209 -112.68 209 -112 209 C-112 208.34 -112 207.68 -112 207 C-111.34 207 -110.68 207 -110 207 C-110 206.34 -110 205.68 -110 205 C-109.34 205 -108.68 205 -108 205 C-108 204.34 -108 203.68 -108 203 C-107.34 203 -106.68 203 -106 203 C-106 202.34 -106 201.68 -106 201 C-105.34 201 -104.68 201 -104 201 C-104 200.34 -104 199.68 -104 199 C-102.02 198.505 -102.02 198.505 -100 198 C-100 197.34 -100 196.68 -100 196 C-99.34 196 -98.68 196 -98 196 C-97.67 194.68 -97.34 193.36 -97 192 C-96.34 192 -95.68 192 -95 192 C-95 191.34 -95 190.68 -95 190 C-94.34 190 -93.68 190 -93 190 C-93 189.34 -93 188.68 -93 188 C-92.34 188 -91.68 188 -91 188 C-91 187.34 -91 186.68 -91 186 C-90.34 186 -89.68 186 -89 186 C-89 185.34 -89 184.68 -89 184 C-88.34 184 -87.68 184 -87 184 C-87 183.34 -87 182.68 -87 182 C-86.34 182 -85.68 182 -85 182 C-85 181.34 -85 180.68 -85 180 C-83.02 179.505 -83.02 179.505 -81 179 C-81 178.34 -81 177.68 -81 177 C-80.34 177 -79.68 177 -79 177 C-78.67 175.68 -78.34 174.36 -78 173 C-77.34 173 -76.68 173 -76 173 C-76 172.34 -76 171.68 -76 171 C-75.34 171 -74.68 171 -74 171 C-73.71125 170.401875 -73.4225 169.80375 -73.125 169.1875 C-72 167 -72 167 -70 164 C-69.34 164 -68.68 164 -68 164 C-68 163.34 -68 162.68 -68 162 C-67.34 162 -66.68 162 -66 162 C-66 161.34 -66 160.68 -66 160 C-65.34 160 -64.68 160 -64 160 C-64 159.34 -64 158.68 -64 158 C-63.34 158 -62.68 158 -62 158 C-62 157.34 -62 156.68 -62 156 C-61.34 156 -60.68 156 -60 156 C-59.731875 155.4225 -59.46375 154.845 -59.1875 154.25 C-57.97070811 151.94449957 -56.69666121 149.97943808 -55 148 C-54.34 148 -53.68 148 -53 148 C-53 147.34 -53 146.68 -53 146 C-49.53846154 143 -49.53846154 143 -47 143 C-47 142.34 -47 141.68 -47 141 C-46.34 141 -45.68 141 -45 141 C-45 140.34 -45 139.68 -45 139 C-44.34 139 -43.68 139 -43 139 C-42.67 137.68 -42.34 136.36 -42 135 C-41.34 135 -40.68 135 -40 135 C-40 134.34 -40 133.68 -40 133 C-39.34 133 -38.68 133 -38 133 C-38 132.34 -38 131.68 -38 131 C-37.34 131 -36.68 131 -36 131 C-36 130.34 -36 129.68 -36 129 C-35.34 129 -34.68 129 -34 129 C-34 128.34 -34 127.68 -34 127 C-33.34 127 -32.68 127 -32 127 C-32 126.34 -32 125.68 -32 125 C-30.68 124.67 -29.36 124.34 -28 124 C-28 123.34 -28 122.68 -28 122 C-27.34 122 -26.68 122 -26 122 C-26 121.34 -26 120.68 -26 120 C-25.34 120 -24.68 120 -24 120 C-23.67 118.68 -23.34 117.36 -23 116 C-22.34 116 -21.68 116 -21 116 C-21 115.34 -21 114.68 -21 114 C-20.34 114 -19.68 114 -19 114 C-19 113.34 -19 112.68 -19 112 C-18.34 112 -17.68 112 -17 112 C-17 111.34 -17 110.68 -17 110 C-16.34 110 -15.68 110 -15 110 C-15 109.34 -15 108.68 -15 108 C-14.34 108 -13.68 108 -13 108 C-13 107.34 -13 106.68 -13 106 C-11.68 105.67 -10.36 105.34 -9 105 C-9 104.34 -9 103.68 -9 103 C-8.34 103 -7.68 103 -7 103 C-6.67 101.68 -6.34 100.36 -6 99 C-5.34 99 -4.68 99 -4 99 C-4 98.34 -4 97.68 -4 97 C-3.34 97 -2.68 97 -2 97 C-2 96.34 -2 95.68 -2 95 C-1.34 95 -0.68 95 0 95 C0 94.34 0 93.68 0 93 C0.66 93 1.32 93 2 93 C2 92.34 2 91.68 2 91 C2.66 91 3.32 91 4 91 C4 90.34 4 89.68 4 89 C4.66 89 5.32 89 6 89 C6 88.34 6 87.68 6 87 C7.32 86.67 8.64 86.34 10 86 C10 85.34 10 84.68 10 84 C10.66 84 11.32 84 12 84 C12.33 82.68 12.66 81.36 13 80 C13.66 80 14.32 80 15 80 C15 79.34 15 78.68 15 78 C15.66 78 16.32 78 17 78 C17 77.34 17 76.68 17 76 C17.66 76 18.32 76 19 76 C19 75.34 19 74.68 19 74 C19.66 74 20.32 74 21 74 C21 73.34 21 72.68 21 72 C21.66 72 22.32 72 23 72 C23 71.34 23 70.68 23 70 C24.6454378 68.31237149 26.31288577 66.6459651 28 65 C28.33 64.34 28.66 63.68 29 63 C29.66 63 30.32 63 31 63 C31 62.34 31 61.68 31 61 C31.66 60.67 32.32 60.34 33 60 C33.65555119 57.47266765 33.65555119 57.47266765 34 55 C33.34 55 32.68 55 32 55 C31.67 53.68 31.34 52.36 31 51 C30.34 51 29.68 51 29 51 C29 50.01 29 49.02 29 48 C28.34 48 27.68 48 27 48 C27 47.34 27 46.68 27 46 C26.34 46 25.68 46 25 46 C25 45.34 25 44.68 25 44 C24.34 44 23.68 44 23 44 C23 43.34 23 42.68 23 42 C22.34 42 21.68 42 21 42 C21 41.34 21 40.68 21 40 C20.34 40 19.68 40 19 40 C19 38.68 19 37.36 19 36 C18.34 36 17.68 36 17 36 C17 35.34 17 34.68 17 34 C16.34 34 15.68 34 15 34 C15 33.34 15 32.68 15 32 C14.34 32 13.68 32 13 32 C10.70351351 29.4385343 10 28.52032428 10 25 C9.34 25 8.68 25 8 25 C8 24.34 8 23.68 8 23 C7.34 23 6.68 23 6 23 C6 22.34 6 21.68 6 21 C5.34 21 4.68 21 4 21 C4 20.34 4 19.68 4 19 C3.34 19 2.68 19 2 19 C2 18.34 2 17.68 2 17 C1.34 17 0.68 17 0 17 C-0.2475 16.05125 -0.495 15.1025 -0.75 14.125 C-1.6857077 10.91306809 -1.6857077 10.91306809 -4.125 9.625 C-4.74375 9.41875 -5.3625 9.2125 -6 9 C-6 7.35 -6 5.7 -6 4 C-5.34 4 -4.68 4 -4 4 C-4 3.34 -4 2.68 -4 2 C-2.68 2 -1.36 2 0 2 C0 1.34 0 0.68 0 0 Z " fill="#EC7922" transform="translate(1167,35)"/>
<path d="M0 0 C33.66 0 67.32 0 102 0 C102 0.66 102 1.32 102 2 C105.3 2 108.6 2 112 2 C112 2.66 112 3.32 112 4 C113.65 4 115.3 4 117 4 C117 4.66 117 5.32 117 6 C119.64 6.33 122.28 6.66 125 7 C125 7.66 125 8.32 125 9 C125.61875 9.144375 126.2375 9.28875 126.875 9.4375 C129 10 129 10 131 11 C131 11.66 131 12.32 131 13 C131.66 13 132.32 13 133 13 C133 13.66 133 14.32 133 15 C133.99 15.33 134.98 15.66 136 16 C137.1875 18.5625 137.1875 18.5625 138 21 C138.66 21 139.32 21 140 21 C140 21.66 140 22.32 140 23 C140.66 23 141.32 23 142 23 C142 23.66 142 24.32 142 25 C142.66 25 143.32 25 144 25 C144 25.99 144 26.98 144 28 C144.66 28 145.32 28 146 28 C146 29.32 146 30.64 146 32 C146.66 32 147.32 32 148 32 C149.99785435 36.1205746 150.17835515 39.45194365 150 44 C150.66 44 151.32 44 152 44 C152.08777806 48.16653186 152.14065272 52.33282276 152.1875 56.5 C152.21263672 57.67304688 152.23777344 58.84609375 152.26367188 60.0546875 C152.32073194 66.82581514 151.85441846 71.84538487 149 78 C148.67 78.99 148.34 79.98 148 81 C147.34 81 146.68 81 146 81 C146 82.32 146 83.64 146 85 C145.34 85 144.68 85 144 85 C144 86.32 144 87.64 144 89 C143.34 89 142.68 89 142 89 C142 89.66 142 90.32 142 91 C141.34 91 140.68 91 140 91 C139.95875 91.556875 139.9175 92.11375 139.875 92.6875 C138.51022892 96.294395 136.08919824 97.73038496 133 100 C132.34 100 131.68 100 131 100 C131 100.66 131 101.32 131 102 C130.34 102 129.68 102 129 102 C129 102.66 129 103.32 129 104 C127.68 104 126.36 104 125 104 C125 104.66 125 105.32 125 106 C121.91190305 107.76462683 120.76687864 108 117 108 C117 108.66 117 109.32 117 110 C109.13297455 113.33752595 102.74167478 114.28602202 94.25390625 114.1953125 C93.35667847 114.19329834 92.45945068 114.19128418 91.53503418 114.18920898 C88.21080348 114.17881242 84.88664614 114.15089024 81.5625 114.125 C74.116875 114.08375 66.67125 114.0425 59 114 C59 134.46 59 154.92 59 176 C58.34 176 57.68 176 57 176 C57 176.66 57 177.32 57 178 C38.19 178 19.38 178 0 178 C0 119.26 0 60.52 0 0 Z M57 43 C57 52.57 57 62.14 57 72 C63.1875 72.12375 63.1875 72.12375 69.5 72.25 C70.78455078 72.28641602 72.06910156 72.32283203 73.39257812 72.36035156 C80.41637967 72.42809825 85.09125651 71.91102545 91 68 C93.36980013 65.04622502 93.36980013 65.04622502 93 61 C93.66 61 94.32 61 95 61 C95.21278058 56.53160785 94.59138085 53.17737474 93 49 C92.34 49 91.68 49 91 49 C91 48.34 91 47.68 91 47 C89.68 47 88.36 47 87 47 C87 46.34 87 45.68 87 45 C85.68 45 84.36 45 83 45 C83 44.34 83 43.68 83 43 C74.42 43 65.84 43 57 43 Z " fill="#1869B0" transform="translate(221,115)"/>
<path d="M0 0 C18.81 0 37.62 0 57 0 C57 17.49 57 34.98 57 53 C57.66 53 58.32 53 59 53 C59 52.34 59 51.68 59 51 C59.66 51 60.32 51 61 51 C61 50.34 61 49.68 61 49 C61.66 49 62.32 49 63 49 C63 48.34 63 47.68 63 47 C67.62197306 44.78145293 70.76824163 43.61718841 76 44 C76 43.34 76 42.68 76 42 C85.24 42 94.48 42 104 42 C104 42.66 104 43.32 104 44 C104.60328125 44.04898438 105.2065625 44.09796875 105.828125 44.1484375 C106.62734375 44.22320312 107.4265625 44.29796875 108.25 44.375 C109.03890625 44.44460937 109.8278125 44.51421875 110.640625 44.5859375 C113.085877 45.01507113 114.84836903 45.78600638 117 47 C117 47.66 117 48.32 117 49 C117.66 49 118.32 49 119 49 C119 49.66 119 50.32 119 51 C119.66 51 120.32 51 121 51 C121 51.66 121 52.32 121 53 C121.66 53 122.32 53 123 53 C123 54.32 123 55.64 123 57 C124.32 57 125.64 57 127 57 C127 58.32 127 59.64 127 61 C127.66 61 128.32 61 129 61 C133.09863184 68.54266911 133.29357515 77.00188689 133.22705078 85.40673828 C133.22734283 86.39330917 133.22763489 87.37988007 133.22793579 88.39634705 C133.22655487 91.62109519 133.21105247 94.84560528 133.1953125 98.0703125 C133.19157796 100.3204638 133.18873307 102.57061675 133.18673706 104.82077026 C133.17913531 110.7160295 133.15951676 116.61118871 133.1373291 122.50640869 C133.1167959 128.53290454 133.10771941 134.55941669 133.09765625 140.5859375 C133.07626741 152.39066872 133.04217355 164.19532601 133 176 C132.34 176 131.68 176 131 176 C131 176.66 131 177.32 131 178 C113.51 178 96.02 178 78 178 C77.93941406 171.87566406 77.87882813 165.75132812 77.81640625 159.44140625 C77.77593351 155.57225821 77.73517135 151.70311761 77.69335938 147.83398438 C77.62695374 141.68646704 77.56164709 135.53895125 77.50268555 129.39135742 C77.4551076 124.43763538 77.40276744 119.48398488 77.34705925 114.53034782 C77.32660582 112.63604439 77.3078978 110.74172132 77.29092598 108.8473835 C77.26694784 106.203603 77.2368847 103.55995902 77.20532227 100.91625977 C77.1995668 100.12504227 77.19381134 99.33382477 77.18788147 98.51863098 C77.46490085 94.96329304 77.46490085 94.96329304 76 92 C75.95907063 89.66702567 75.95758277 87.33294775 76 85 C75.34 85 74.68 85 74 85 C73.34 84.01 72.68 83.02 72 82 C69.57478506 81.41810734 69.57478506 81.41810734 66.875 81.3125 C65.96492187 81.24675781 65.05484375 81.18101562 64.1171875 81.11328125 C63.41851563 81.07589844 62.71984375 81.03851563 62 81 C61.690625 81.61875 61.38125 82.2375 61.0625 82.875 C60.375 84.25 59.6875 85.625 59 87 C58.34 87 57.68 87 57 87 C57 116.37 57 145.74 57 176 C56.34 176 55.68 176 55 176 C55 176.66 55 177.32 55 178 C37.51 178 20.02 178 2 178 C2 177.34 2 176.68 2 176 C1.34 176 0.68 176 0 176 C0 117.92 0 59.84 0 0 Z " fill="#1869B0" transform="translate(843,115)"/>
<path d="M0 0 C18.15 0 36.3 0 55 0 C55 17.49 55 34.98 55 53 C55.66 53 56.32 53 57 53 C57 52.34 57 51.68 57 51 C61.38461538 48 61.38461538 48 64 48 C64 47.34 64 46.68 64 46 C65.32 46 66.64 46 68 46 C68 45.34 68 44.68 68 44 C69.98 44 71.96 44 74 44 C74 43.34 74 42.68 74 42 C83.9 42 93.8 42 104 42 C104 42.66 104 43.32 104 44 C104.7425 43.95875 105.485 43.9175 106.25 43.875 C109.08758952 44.00398134 110.58773938 44.57051222 113 46 C113 46.66 113 47.32 113 48 C113.9075 48.2475 114.815 48.495 115.75 48.75 C119.14075997 50.05413845 120.76921688 51.16862142 123 54 C123 54.99 123 55.98 123 57 C123.66 57 124.32 57 125 57 C125 57.66 125 58.32 125 59 C125.66 59 126.32 59 127 59 C127 60.32 127 61.64 127 63 C127.66 63 128.32 63 129 63 C131.88828832 76.20356318 131.14844754 90.16607353 131.1328125 103.60546875 C131.13348745 105.66335563 131.13445906 107.72124242 131.13571167 109.77912903 C131.13717602 114.06117523 131.13507256 118.3432004 131.13037109 122.62524414 C131.12463465 128.11747729 131.12798532 133.60966199 131.13394356 139.10189342 C131.13754958 143.33712635 131.13641108 147.57234768 131.13381577 151.80758095 C131.13314866 153.83422158 131.13396737 155.86086326 131.13629532 157.88750267 C131.13882677 160.70652459 131.13497604 163.52546649 131.12939453 166.34448242 C131.13141876 167.18132065 131.13344299 168.01815887 131.13552856 168.88035583 C131.12339981 172.17686541 131.04987178 174.85038467 130 178 C112.51 178 95.02 178 77 178 C75.37436614 174.74873227 75.8709104 171.17462025 75.88647461 167.60302734 C75.88632858 166.73466751 75.88618256 165.86630768 75.8860321 164.97163391 C75.88673039 162.09304328 75.8945189 159.21451686 75.90234375 156.3359375 C75.90420823 154.34339432 75.90563199 152.35085069 75.90663147 150.35830688 C75.91045431 145.10740906 75.92028263 139.85653878 75.93133545 134.60565186 C75.94155457 129.25012586 75.94613017 123.89459543 75.95117188 118.5390625 C75.96190509 108.02602955 75.97897873 97.51301706 76 87 C75.34 87 74.68 87 74 87 C74 86.01 74 85.02 74 84 C73.34 84 72.68 84 72 84 C72 83.34 72 82.68 72 82 C70.45761734 82.11583111 68.91609728 82.24316572 67.375 82.375 C66.51648437 82.44460938 65.65796875 82.51421875 64.7734375 82.5859375 C61.40084126 83.00785345 61.40084126 83.00785345 56 85 C55.67 115.03 55.34 145.06 55 176 C54.34 176 53.68 176 53 176 C53 176.66 53 177.32 53 178 C35.51 178 18.02 178 0 178 C0 119.26 0 60.52 0 0 Z " fill="#29BEE9" transform="translate(1486,369)"/>
<path d="M0 0 C15.51 0 31.02 0 47 0 C47 0.66 47 1.32 47 2 C48.27875 1.938125 49.5575 1.87625 50.875 1.8125 C56.27423811 1.78674847 60.94238735 3.22614003 66 5 C66 5.66 66 6.32 66 7 C67.32 7 68.64 7 70 7 C70 7.66 70 8.32 70 9 C70.99 9 71.98 9 73 9 C73 9.66 73 10.32 73 11 C73.99 11 74.98 11 76 11 C76 11.66 76 12.32 76 13 C76.66 13 77.32 13 78 13 C78.495 14.98 78.495 14.98 79 17 C79.66 17 80.32 17 81 17 C81 18.32 81 19.64 81 21 C82.98 21.99 82.98 21.99 85 23 C85 24.32 85 25.64 85 27 C85.66 27 86.32 27 87 27 C87 30.63 87 34.26 87 38 C87.66 38 88.32 38 89 38 C89 66.05 89 94.1 89 123 C89.66 123 90.32 123 91 123 C91 125.64 91 128.28 91 131 C91.66 131 92.32 131 93 131 C93 131.99 93 132.98 93 134 C92.34 134 91.68 134 91 134 C91 134.66 91 135.32 91 136 C74.83 136 58.66 136 42 136 C42 135.34 42 134.68 42 134 C41.34 134 40.68 134 40 134 C40 132.68 40 131.36 40 130 C39.34 130 38.68 130 38 130 C37.67 128.02 37.34 126.04 37 124 C35.515 124.495 35.515 124.495 34 125 C34 125.66 34 126.32 34 127 C33.34 127 32.68 127 32 127 C32 127.66 32 128.32 32 129 C30.68 129.33 29.36 129.66 28 130 C28 130.66 28 131.32 28 132 C24.86501708 133.85776765 22.62528568 134.20140476 19 134 C19 134.66 19 135.32 19 136 C17.02 136 15.04 136 13 136 C13 136.66 13 137.32 13 138 C3.1 138 -6.8 138 -17 138 C-17 137.34 -17 136.68 -17 136 C-18.98 136 -20.96 136 -23 136 C-23 135.34 -23 134.68 -23 134 C-24.65 134 -26.3 134 -28 134 C-28 133.34 -28 132.68 -28 132 C-29.32 132 -30.64 132 -32 132 C-32 131.34 -32 130.68 -32 130 C-33.32 129.67 -34.64 129.34 -36 129 C-36 128.34 -36 127.68 -36 127 C-36.66 127 -37.32 127 -38 127 C-38 126.34 -38 125.68 -38 125 C-38.66 125 -39.32 125 -40 125 C-40 124.34 -40 123.68 -40 123 C-40.66 123 -41.32 123 -42 123 C-44 120 -44 120 -44 117 C-44.66 117 -45.32 117 -46 117 C-46.33 114.03 -46.66 111.06 -47 108 C-47.66 108 -48.32 108 -49 108 C-49 101.07 -49 94.14 -49 87 C-48.34 87 -47.68 87 -47 87 C-46.92652344 86.09507812 -46.92652344 86.09507812 -46.8515625 85.171875 C-46.73941406 83.97304687 -46.73941406 83.97304687 -46.625 82.75 C-46.55539062 81.96109375 -46.48578125 81.1721875 -46.4140625 80.359375 C-45.98492887 77.914123 -45.21399362 76.15163097 -44 74 C-43.34 74 -42.68 74 -42 74 C-42 73.34 -42 72.68 -42 72 C-41.34 72 -40.68 72 -40 72 C-40 71.34 -40 70.68 -40 70 C-39.34 70 -38.68 70 -38 70 C-38 69.34 -38 68.68 -38 68 C-37.34 68 -36.68 68 -36 68 C-36 67.34 -36 66.68 -36 66 C-35.34 66 -34.68 66 -34 66 C-34 65.34 -34 64.68 -34 64 C-33.34 64 -32.68 64 -32 64 C-32 63.34 -32 62.68 -32 62 C-30.68 62 -29.36 62 -28 62 C-28 61.34 -28 60.68 -28 60 C-21.5 57 -21.5 57 -17 57 C-17 56.34 -17 55.68 -17 55 C-15.02 55 -13.04 55 -11 55 C-11 54.34 -11 53.68 -11 53 C-8.69 53 -6.38 53 -4 53 C-4 52.34 -4 51.68 -4 51 C-0.7 51 2.6 51 6 51 C6 50.34 6 49.68 6 49 C10.95 49 15.9 49 21 49 C21 48.34 21 47.68 21 47 C25.95 47 30.9 47 36 47 C36 45.68 36 44.36 36 43 C35.34 43 34.68 43 34 43 C34 41.02 34 39.04 34 37 C26.19732697 34.28602677 18.77461607 33.89015357 11 37 C10.34 37 9.68 37 9 37 C9 37.66 9 38.32 9 39 C8.34 39 7.68 39 7 39 C6.67 41.64 6.34 44.28 6 47 C5.34 47 4.68 47 4 47 C4 47.66 4 48.32 4 49 C1.66705225 49.04241723 -0.66702567 49.04092937 -3 49 C-3.33 48.67 -3.66 48.34 -4 48 C-5.40197402 47.85578846 -6.81042831 47.77313876 -8.21875 47.71875 C-9.06824219 47.68136719 -9.91773438 47.64398438 -10.79296875 47.60546875 C-11.68628906 47.57066406 -12.57960938 47.53585938 -13.5 47.5 C-15.26059038 47.43140557 -17.02102741 47.35871048 -18.78125 47.28125 C-19.56564453 47.25095703 -20.35003906 47.22066406 -21.15820312 47.18945312 C-23 47 -23 47 -24 46 C-25.37891723 45.86776232 -26.7638595 45.79684002 -28.1484375 45.75390625 C-28.98890625 45.72103516 -29.829375 45.68816406 -30.6953125 45.65429688 C-32.47383755 45.59337073 -34.25248982 45.53604626 -36.03125 45.48242188 C-36.87429688 45.44826172 -37.71734375 45.41410156 -38.5859375 45.37890625 C-39.74681885 45.34132202 -39.74681885 45.34132202 -40.93115234 45.30297852 C-43 45 -43 45 -46 43 C-46.1875 39.375 -46.1875 39.375 -46 36 C-45.34 36 -44.68 36 -44 36 C-44.12375 34.9790625 -44.12375 34.9790625 -44.25 33.9375 C-43.90053135 29.83124335 -42.18150968 27.47678105 -40 24 C-39.34 24 -38.68 24 -38 24 C-38 23.01 -38 22.02 -38 21 C-37.34 21 -36.68 21 -36 21 C-36 20.34 -36 19.68 -36 19 C-35.34 19 -34.68 19 -34 19 C-34 18.34 -34 17.68 -34 17 C-33.34 17 -32.68 17 -32 17 C-32 16.34 -32 15.68 -32 15 C-31.34 15 -30.68 15 -30 15 C-30 14.34 -30 13.68 -30 13 C-29.34 13 -28.68 13 -28 13 C-28 12.34 -28 11.68 -28 11 C-27.01 11 -26.02 11 -25 11 C-25 10.34 -25 9.68 -25 9 C-23.68 9 -22.36 9 -21 9 C-21 8.34 -21 7.68 -21 7 C-17.91190305 5.23537317 -16.76687864 5 -13 5 C-13 4.34 -13 3.68 -13 3 C-8.59085217 1.89771304 -4.51617599 1.92345464 0 2 C0 1.34 0 0.68 0 0 Z M30 75 C30 75.66 30 76.32 30 77 C28.96875 76.95875 27.9375 76.9175 26.875 76.875 C23.13170373 76.99575149 20.46265453 77.64872018 17 79 C17 79.66 17 80.32 17 81 C16.34 81 15.68 81 15 81 C15 81.66 15 82.32 15 83 C13.68 83 12.36 83 11 83 C11 83.66 11 84.32 11 85 C10.34 85 9.68 85 9 85 C9 86.32 9 87.64 9 89 C8.34 89 7.68 89 7 89 C7 91.97 7 94.94 7 98 C7.66 98 8.32 98 9 98 C9 98.66 9 99.32 9 100 C9.66 100 10.32 100 11 100 C11 100.66 11 101.32 11 102 C13.56428515 102.13559675 16.12135216 102.23433188 18.6875 102.3125 C19.40873047 102.35439453 20.12996094 102.39628906 20.87304688 102.43945312 C25.11259749 102.53624652 26.55798642 102.35052306 30.01953125 99.60546875 C32.2017146 97.28008197 32.2017146 97.28008197 32 95 C32.66 95 33.32 95 34 95 C34 91.7 34 88.4 34 85 C34.66 85 35.32 85 36 85 C36 81.7 36 78.4 36 75 C34.02 75 32.04 75 30 75 Z " fill="#1869B0" transform="translate(733,157)"/>
<path d="M0 0 C14.85 0 29.7 0 45 0 C45 0.66 45 1.32 45 2 C45.66386719 1.98839844 46.32773437 1.97679687 47.01171875 1.96484375 C55.78207381 1.87521968 55.78207381 1.87521968 60 3 C60 3.66 60 4.32 60 5 C60.94875 5.144375 61.8975 5.28875 62.875 5.4375 C66 6 66 6 68 7 C68 7.66 68 8.32 68 9 C69.32 9 70.64 9 72 9 C72 9.66 72 10.32 72 11 C72.66 11 73.32 11 74 11 C74.495 12.98 74.495 12.98 75 15 C75.66 15 76.32 15 77 15 C77 15.66 77 16.32 77 17 C77.66 17 78.32 17 79 17 C79 17.66 79 18.32 79 19 C79.66 19 80.32 19 81 19 C81 19.66 81 20.32 81 21 C81.66 21 82.32 21 83 21 C85.32590854 24.63423209 85.16265833 27.77088331 85 32 C85.66 32 86.32 32 87 32 C87.0154612 33.59399879 87.0154612 33.59399879 87.03123474 35.22019958 C87.12879479 45.21220949 87.2315119 55.20415469 87.33933926 65.19605923 C87.39461308 70.33356469 87.44804007 75.47107579 87.49731445 80.60864258 C87.5448924 85.56236462 87.59723256 90.51601512 87.65294075 95.46965218 C87.67339418 97.36395561 87.6921022 99.25827868 87.70907402 101.1526165 C87.73305216 103.796397 87.7631153 106.44004098 87.79467773 109.08374023 C87.8004332 109.87495773 87.80618866 110.66617523 87.81211853 111.48136902 C87.53509915 115.03670696 87.53509915 115.03670696 89 118 C89.20768229 119.47396739 89.36716017 120.9549126 89.5 122.4375 C89.79146944 125.84497505 89.79146944 125.84497505 91 129 C91 131.31 91 133.62 91 136 C74.17 136 57.34 136 40 136 C40 135.34 40 134.68 40 134 C39.34 134 38.68 134 38 134 C38 130.37 38 126.74 38 123 C36.948125 123.969375 35.89625 124.93875 34.8125 125.9375 C31.94065245 128.41826262 29.8992756 129.76368027 26 130 C26 130.66 26 131.32 26 132 C24.68 132 23.36 132 22 132 C22 132.66 22 133.32 22 134 C18.36576791 136.32590854 15.22911669 136.16265833 11 136 C11 136.66 11 137.32 11 138 C1.76 138 -7.48 138 -17 138 C-17 137.34 -17 136.68 -17 136 C-19.64 136 -22.28 136 -25 136 C-25 135.34 -25 134.68 -25 134 C-26.32 134 -27.64 134 -29 134 C-29 133.34 -29 132.68 -29 132 C-30.32 132 -31.64 132 -33 132 C-33 131.34 -33 130.68 -33 130 C-34.65 129.67 -36.3 129.34 -38 129 C-38 127.68 -38 126.36 -38 125 C-39.32 125 -40.64 125 -42 125 C-42.99 122.03 -42.99 122.03 -44 119 C-44.66 119 -45.32 119 -46 119 C-46 117.68 -46 116.36 -46 115 C-46.66 115 -47.32 115 -48 115 C-48 113.68 -48 112.36 -48 111 C-48.66 111 -49.32 111 -50 111 C-50.2165625 109.2984375 -50.2165625 109.2984375 -50.4375 107.5625 C-50.61171478 104.19222799 -50.61171478 104.19222799 -52 103 C-52.09851171 101.16884117 -52.12972629 99.33380067 -52.125 97.5 C-52.12757813 96.4996875 -52.13015625 95.499375 -52.1328125 94.46875 C-52 92 -52 92 -51 91 C-50.855625 89.9275 -50.71125 88.855 -50.5625 87.75 C-50.07165009 84.47766726 -49.35790278 81.98738612 -48 79 C-47.34 79 -46.68 79 -46 79 C-46 78.01 -46 77.02 -46 76 C-45.34 76 -44.68 76 -44 76 C-44 74.68 -44 73.36 -44 72 C-43.34 72 -42.68 72 -42 72 C-42 71.34 -42 70.68 -42 70 C-41.34 70 -40.68 70 -40 70 C-40 69.34 -40 68.68 -40 68 C-39.34 68 -38.68 68 -38 68 C-38 67.34 -38 66.68 -38 66 C-37.34 66 -36.68 66 -36 66 C-36 65.34 -36 64.68 -36 64 C-34.35 64 -32.7 64 -31 64 C-30.95230469 63.39671875 -30.90460938 62.7934375 -30.85546875 62.171875 C-30 60 -30 60 -27.48828125 58.515625 C-26.44027344 58.09796875 -25.39226562 57.6803125 -24.3125 57.25 C-23.27738281 56.82203125 -22.24226563 56.3940625 -21.17578125 55.953125 C-17.93734659 54.98119627 -15.35915717 54.81869616 -12 55 C-12 54.34 -12 53.68 -12 53 C-6.21642935 50.98832325 -1.09781001 50.77915376 5 51 C5 50.34 5 49.68 5 49 C9.62 49 14.24 49 19 49 C19 48.34 19 47.68 19 47 C23.95 47 28.9 47 34 47 C34 44.36 34 41.72 34 39 C33.34 39 32.68 39 32 39 C32 38.34 32 37.68 32 37 C24.47253625 34.49084542 18.61657395 34.23033675 11 37 C9.68 37 8.36 37 7 37 C7 37.66 7 38.32 7 39 C6.34 39 5.68 39 5 39 C5 40.32 5 41.64 5 43 C4.34 43 3.68 43 3 43 C3 44.32 3 45.64 3 47 C2.34 47 1.68 47 1 47 C1 47.66 1 48.32 1 49 C-0.65 49 -2.3 49 -4 49 C-4 48.34 -4 47.68 -4 47 C-10.93 47 -17.86 47 -25 47 C-25 46.34 -25 45.68 -25 45 C-25.88522339 45.01571045 -25.88522339 45.01571045 -26.78833008 45.03173828 C-29.46301004 45.07332044 -32.13762197 45.0993329 -34.8125 45.125 C-35.74126953 45.14175781 -36.67003906 45.15851563 -37.62695312 45.17578125 C-38.9659668 45.18544922 -38.9659668 45.18544922 -40.33203125 45.1953125 C-41.15421143 45.20578613 -41.9763916 45.21625977 -42.82348633 45.22705078 C-45 45 -45 45 -48 43 C-48.1875 40.375 -48.1875 40.375 -48 38 C-47.34 38 -46.68 38 -46 38 C-46 36.02 -46 34.04 -46 32 C-45.34 32 -44.68 32 -44 32 C-44 30.68 -44 29.36 -44 28 C-43.34 28 -42.68 28 -42 28 C-41.896875 27.401875 -41.79375 26.80375 -41.6875 26.1875 C-40.90175967 23.68741714 -40.03081147 22.62464918 -38 21 C-37.34 21 -36.68 21 -36 21 C-36 19.68 -36 18.36 -36 17 C-35.34 17 -34.68 17 -34 17 C-34 16.34 -34 15.68 -34 15 C-33.01 15 -32.02 15 -31 15 C-31 14.34 -31 13.68 -31 13 C-30.34 13 -29.68 13 -29 13 C-29 12.34 -29 11.68 -29 11 C-28.34 11 -27.68 11 -27 11 C-27 10.34 -27 9.68 -27 9 C-25.68 9 -24.36 9 -23 9 C-23 8.34 -23 7.68 -23 7 C-21.68 7 -20.36 7 -19 7 C-19 6.34 -19 5.68 -19 5 C-12.51656189 2.36903961 -6.97669157 1.60674181 0 2 C0 1.34 0 0.68 0 0 Z M28 75 C28 75.66 28 76.32 28 77 C25.36 77 22.72 77 20 77 C20 77.66 20 78.32 20 79 C19.01 79 18.02 79 17 79 C17 79.66 17 80.32 17 81 C15.68 81 14.36 81 13 81 C13 81.66 13 82.32 13 83 C12.34 83 11.68 83 11 83 C11 83.66 11 84.32 11 85 C10.34 85 9.68 85 9 85 C9 85.66 9 86.32 9 87 C8.34 87 7.68 87 7 87 C5.50178941 90.37097383 5 92.20442119 5 96 C5.66 96 6.32 96 7 96 C7 97.32 7 98.64 7 100 C7.66 100 8.32 100 9 100 C9 100.66 9 101.32 9 102 C13.95 102 18.9 102 24 102 C24 101.34 24 100.68 24 100 C25.32 100 26.64 100 28 100 C28 99.34 28 98.68 28 98 C28.66 98 29.32 98 30 98 C34.84230868 90.58521483 34.39922611 83.5168236 34 75 C32.02 75 30.04 75 28 75 Z " fill="#1869B0" transform="translate(428,157)"/>
<path d="M0 0 C10.56 0 21.12 0 32 0 C32 0.66 32 1.32 32 2 C34.97 2.33 37.94 2.66 41 3 C41 3.66 41 4.32 41 5 C41.61875 5.144375 42.2375 5.28875 42.875 5.4375 C45 6 45 6 47 7 C47 7.66 47 8.32 47 9 C47.66 9 48.32 9 49 9 C49 9.66 49 10.32 49 11 C49.66 11 50.32 11 51 11 C51 11.66 51 12.32 51 13 C51.66 13 52.32 13 53 13 C53 13.66 53 14.32 53 15 C53.66 15 54.32 15 55 15 C55 16.32 55 17.64 55 19 C55.66 19 56.32 19 57 19 C58.32286246 23.96073422 58.08893197 28.91111512 58 34 C58.66 34 59.32 34 60 34 C60 67 60 100 60 134 C59.34 134 58.68 134 58 134 C58 134.66 58 135.32 58 136 C40.84 136 23.68 136 6 136 C6 106.96 6 77.92 6 48 C5.34 48 4.68 48 4 48 C4 45.69 4 43.38 4 41 C3.34 41 2.68 41 2 41 C2 40.34 2 39.68 2 39 C-1.96 39 -5.92 39 -10 39 C-10 39.66 -10 40.32 -10 41 C-10.66 41 -11.32 41 -12 41 C-12 41.66 -12 42.32 -12 43 C-12.66 43 -13.32 43 -14 43 C-14.33 73.03 -14.66 103.06 -15 134 C-15.66 134 -16.32 134 -17 134 C-17 134.66 -17 135.32 -17 136 C-34.49 136 -51.98 136 -70 136 C-70 91.78 -70 47.56 -70 2 C-21 2 -21 2 -19 3 C-19 6.3 -19 9.6 -19 13 C-18.34 13 -17.68 13 -17 13 C-17 12.34 -17 11.68 -17 11 C-16.34 11 -15.68 11 -15 11 C-15 10.34 -15 9.68 -15 9 C-14.34 9 -13.68 9 -13 9 C-12.79375 8.401875 -12.5875 7.80375 -12.375 7.1875 C-10.43871707 4.10704989 -8.34825071 3.31303949 -5 2 C-2.125 1.8125 -2.125 1.8125 0 2 C0 1.34 0 0.68 0 0 Z " fill="#1869B0" transform="translate(608,157)"/>
<path d="M0 0 C5.39346988 -0.02464849 10.78690725 -0.04283531 16.18041992 -0.05493164 C18.01668875 -0.05997231 19.85295354 -0.06680477 21.68920898 -0.07543945 C24.32276401 -0.08751672 26.95626616 -0.09323081 29.58984375 -0.09765625 C30.41588608 -0.10281754 31.24192841 -0.10797882 32.09300232 -0.11329651 C34.06236368 -0.11349205 36.03161614 -0.06204152 38 0 C38.495 0.495 38.495 0.495 39 1 C41.32817964 1.36760731 43.6618385 1.70241581 46 2 C46 2.66 46 3.32 46 4 C47.65 4 49.3 4 51 4 C51 4.66 51 5.32 51 6 C52.03125 6.0825 53.0625 6.165 54.125 6.25 C58.38440967 7.07440187 60.65462072 8.27701687 64 11 C65.375 13.25 65.375 13.25 66 15 C66.66 15 67.32 15 68 15 C68 15.66 68 16.32 68 17 C69.32 17 70.64 17 72 17 C72 17.66 72 18.32 72 19 C72.66 19 73.32 19 74 19 C74 20.32 74 21.64 74 23 C74.66 23 75.32 23 76 23 C76 23.66 76 24.32 76 25 C77.98 25.99 77.98 25.99 80 27 C80 27.99 80 28.98 80 30 C80.66 30 81.32 30 82 30 C84.41685712 34.22949995 85.34833144 37.12335991 85 42 C85.66 42 86.32 42 87 42 C87 43.65 87 45.3 87 47 C87.66 47 88.32 47 89 47 C89 50.3 89 53.6 89 57 C89.66 57 90.32 57 91 57 C91 64.26 91 71.52 91 79 C90.34 79 89.68 79 89 79 C89 79.66 89 80.32 89 81 C60.95 81 32.9 81 4 81 C4.66 82.65 5.32 84.3 6 86 C6.07646165 88.3320802 6.09143299 90.66845878 6 93 C6.66 93 7.32 93 8 93 C8.66 94.98 9.32 96.96 10 99 C17.26 99 24.52 99 32 99 C32 98.34 32 97.68 32 97 C32.66 97 33.32 97 34 97 C34 96.34 34 95.68 34 95 C34.66 95 35.32 95 36 95 C36 94.34 36 93.68 36 93 C36.66 93 37.32 93 38 93 C37.95875 92.05125 37.9175 91.1025 37.875 90.125 C38 87 38 87 40 85 C42.21484375 84.75708008 42.21484375 84.75708008 44.9375 84.76953125 C46.40316406 84.77243164 46.40316406 84.77243164 47.8984375 84.77539062 C48.92195313 84.78763672 49.94546875 84.79988281 51 84.8125 C52.02351563 84.81314453 53.04703125 84.81378906 54.1015625 84.81445312 C61.71935497 84.85967749 61.71935497 84.85967749 64 86 C65.88472859 86.15344209 67.77427874 86.24959571 69.6640625 86.31640625 C70.78554687 86.35830078 71.90703125 86.40019531 73.0625 86.44335938 C74.238125 86.48267578 75.41375 86.52199219 76.625 86.5625 C77.80835938 86.60568359 78.99171875 86.64886719 80.2109375 86.69335938 C83.14050328 86.79967426 86.07015588 86.90170642 89 87 C89 87.66 89 88.32 89 89 C89.66 89 90.32 89 91 89 C91 90.98 91 92.96 91 95 C90.34 95 89.68 95 89 95 C89 96.65 89 98.3 89 100 C88.34 100 87.68 100 87 100 C87 101.32 87 102.64 87 104 C86.34 104 85.68 104 85 104 C84.9175 104.86625 84.835 105.7325 84.75 106.625 C83.8762919 110.55668644 82.53496354 112.88561622 80 116 C77.75 116.875 77.75 116.875 76 117 C76 117.66 76 118.32 76 119 C75.34 119 74.68 119 74 119 C74 119.66 74 120.32 74 121 C73.34 121 72.68 121 72 121 C72 121.66 72 122.32 72 123 C71.34 123 70.68 123 70 123 C70 123.66 70 124.32 70 125 C69.34 125 68.68 125 68 125 C68 125.66 68 126.32 68 127 C67.01 127 66.02 127 65 127 C65 127.66 65 128.32 65 129 C63.68 129 62.36 129 61 129 C61 129.66 61 130.32 61 131 C59.68 131 58.36 131 57 131 C57 131.66 57 132.32 57 133 C54.03 133.33 51.06 133.66 48 134 C48 134.66 48 135.32 48 136 C44.7 136 41.4 136 38 136 C38 136.66 38 137.32 38 138 C26.78 138 15.56 138 4 138 C4 137.34 4 136.68 4 136 C1.03 136 -1.94 136 -5 136 C-5 135.34 -5 134.68 -5 134 C-8.3 133.67 -11.6 133.34 -15 133 C-15 132.34 -15 131.68 -15 131 C-16.32 131 -17.64 131 -19 131 C-19 130.34 -19 129.68 -19 129 C-19.556875 128.896875 -20.11375 128.79375 -20.6875 128.6875 C-23.4769101 127.85821592 -25.6139064 126.65700944 -28 125 C-28 124.34 -28 123.68 -28 123 C-28.66 123 -29.32 123 -30 123 C-30 122.34 -30 121.68 -30 121 C-30.66 121 -31.32 121 -32 121 C-32.33 120.01 -32.66 119.02 -33 118 C-34.175625 117.5359375 -34.175625 117.5359375 -35.375 117.0625 C-38.4112418 115.83354499 -39.41567947 114.8350999 -41 112 C-41 110.68 -41 109.36 -41 108 C-41.66 108 -42.32 108 -43 108 C-43 107.34 -43 106.68 -43 106 C-43.66 106 -44.32 106 -45 106 C-45 104.68 -45 103.36 -45 102 C-45.66 102 -46.32 102 -47 102 C-47 100.68 -47 99.36 -47 98 C-47.66 98 -48.32 98 -49 98 C-49 96.35 -49 94.7 -49 93 C-49.66 93 -50.32 93 -51 93 C-53.24222262 86.05909637 -53.33777734 79.48536129 -53.31567383 72.23950195 C-53.31251278 70.07126603 -53.33602376 67.9043961 -53.36132812 65.73632812 C-53.39336259 58.57822159 -53.12619855 52.57688859 -50 46 C-49.64081867 44.67339619 -49.30113143 43.34097306 -49 42 C-48.34 42 -47.68 42 -47 42 C-47 40.68 -47 39.36 -47 38 C-46.34 38 -45.68 38 -45 38 C-45 36.68 -45 35.36 -45 34 C-44.34 34 -43.68 34 -43 34 C-43 32.68 -43 31.36 -43 30 C-42.34 30 -41.68 30 -41 30 C-40.67 28.35 -40.34 26.7 -40 25 C-39.34 25 -38.68 25 -38 25 C-38 24.34 -38 23.68 -38 23 C-37.34 23 -36.68 23 -36 23 C-36 22.34 -36 21.68 -36 21 C-35.34 21 -34.68 21 -34 21 C-34 20.34 -34 19.68 -34 19 C-33.34 19 -32.68 19 -32 19 C-32 18.34 -32 17.68 -32 17 C-31.34 17 -30.68 17 -30 17 C-30 16.34 -30 15.68 -30 15 C-29.34 15 -28.68 15 -28 15 C-28 14.34 -28 13.68 -28 13 C-27.34 13 -26.68 13 -26 13 C-26 12.34 -26 11.68 -26 11 C-24.58957044 10.15615325 -23.17135868 9.32530504 -21.75 8.5 C-20.96109375 8.0359375 -20.1721875 7.571875 -19.359375 7.09375 C-17 6 -17 6 -13 6 C-13 5.34 -13 4.68 -13 4 C-11.02 4 -9.04 4 -7 4 C-7 3.34 -7 2.68 -7 2 C-4.69 2 -2.38 2 0 2 C0 1.34 0 0.68 0 0 Z M13 34 C13 34.66 13 35.32 13 36 C12.01 36 11.02 36 10 36 C10 36.66 10 37.32 10 38 C9.34 38 8.68 38 8 38 C6.14223235 41.13498292 5.79859524 43.37471432 6 47 C5.34 47 4.68 47 4 47 C4 48.32 4 49.64 4 51 C14.23 51 24.46 51 35 51 C35 45.70485259 33.05041815 40.8331285 31 36 C29.68 36 28.36 36 27 36 C27 35.34 27 34.68 27 34 C22.38 34 17.76 34 13 34 Z " fill="#29BDE8" transform="translate(1239,411)"/>
<path d="M0 0 C41.91 0 83.82 0 127 0 C128.12524019 6.75144112 128.12524019 6.75144112 128.03759766 10.24536133 C128.02072906 11.02248978 128.00386047 11.79961823 127.98648071 12.60029602 C127.9625827 13.41926865 127.93868469 14.23824127 127.9140625 15.08203125 C127.89282318 15.93681564 127.87158386 16.79160004 127.84970093 17.67228699 C127.8036463 19.46836633 127.75473677 21.26437449 127.703125 23.06030273 C127.62476857 25.82065296 127.55786541 28.58111896 127.4921875 31.34179688 C127.44599235 33.08855978 127.39914074 34.83530547 127.3515625 36.58203125 C127.33171295 37.41112503 127.3118634 38.24021881 127.29141235 39.09443665 C127.1151767 44.8848233 127.1151767 44.8848233 126 46 C123.40640678 46.08851529 120.83960309 46.11525945 118.24609375 46.09765625 C117.47064713 46.0962413 116.6952005 46.09482635 115.89625549 46.09336853 C113.40996506 46.08775345 110.9237634 46.07519846 108.4375 46.0625 C106.75586067 46.05748694 105.07421994 46.0529237 103.39257812 46.04882812 C99.26168434 46.03777913 95.13085724 46.02050445 91 46 C91.00184359 46.66814161 91.00368717 47.33628323 91.00558662 48.02467155 C91.04971199 64.26512582 91.08283037 80.50556115 91.10362434 96.74606133 C91.11394684 104.59977239 91.12802571 112.45344349 91.15087891 120.30712891 C91.17078306 127.15059915 91.18370935 133.99404046 91.18817699 140.83753884 C91.19078943 144.46275228 91.19694987 148.08788295 91.21146011 151.71306992 C91.22750873 155.75520282 91.22798161 159.79719084 91.22705078 163.83935547 C91.23424133 165.04776093 91.24143188 166.25616638 91.24884033 167.50119019 C91.246091 168.59777954 91.24334167 169.6943689 91.24050903 170.82418823 C91.24235262 171.78100935 91.24419621 172.73783047 91.24609566 173.72364616 C91 176 91 176 89 178 C86.83679199 178.25396729 86.83679199 178.25396729 84.12304688 178.25878906 C82.60136902 178.26824554 82.60136902 178.26824554 81.0489502 178.27789307 C79.94998413 178.2738446 78.85101807 178.26979614 77.71875 178.265625 C76.59432495 178.26753845 75.4698999 178.2694519 74.31140137 178.27142334 C71.93074317 178.27278617 69.55007757 178.26908294 67.16943359 178.26074219 C63.51513047 178.25004429 59.86131899 178.26063444 56.20703125 178.2734375 C53.89843641 178.27211592 51.58984188 178.26955357 49.28125 178.265625 C47.6328009 178.27169769 47.6328009 178.27169769 45.9510498 178.27789307 C44.9365979 178.27158875 43.922146 178.26528442 42.87695312 178.25878906 C41.53364929 178.25640228 41.53364929 178.25640228 40.16320801 178.25396729 C38 178 38 178 36 176 C35.75390434 173.72364616 35.75390434 173.72364616 35.75949097 170.82418823 C35.75674164 169.72759888 35.75399231 168.63100952 35.75115967 167.50119019 C35.75835022 166.29278473 35.76554077 165.08437927 35.77294922 163.83935547 C35.77265717 162.57109924 35.77236511 161.30284302 35.77206421 159.99615479 C35.77148903 156.51285692 35.78326993 153.02969606 35.79721212 149.54643011 C35.80969204 145.90824924 35.81088781 142.27006543 35.81326294 138.63186646 C35.81948579 131.73995545 35.83590744 124.84810768 35.85596192 117.95622456 C35.87829594 110.11111264 35.88930805 102.26599774 35.89935279 94.42086196 C35.92027301 78.28053175 35.95695923 62.14028868 36 46 C24.78 46 13.56 46 2 46 C2 45.34 2 44.68 2 44 C1.34 44 0.68 44 0 44 C0 29.48 0 14.96 0 0 Z " fill="#2ABEE8" transform="translate(1067,369)"/>
<path d="M0 0 C11.88 0 23.76 0 36 0 C36 0.66 36 1.32 36 2 C38.64 2 41.28 2 44 2 C44 2.66 44 3.32 44 4 C44.99 4 45.98 4 47 4 C47 4.66 47 5.32 47 6 C49.64 6.33 52.28 6.66 55 7 C55 7.66 55 8.32 55 9 C55.598125 9.103125 56.19625 9.20625 56.8125 9.3125 C59.31258286 10.09824033 60.37535082 10.96918853 62 13 C62 13.66 62 14.32 62 15 C62.66 15 63.32 15 64 15 C64 15.66 64 16.32 64 17 C64.66 17 65.32 17 66 17 C66 17.66 66 18.32 66 19 C66.66 19 67.32 19 68 19 C68 19.66 68 20.32 68 21 C68.66 21 69.32 21 70 21 C70 21.66 70 22.32 70 23 C70.66 23 71.32 23 72 23 C72 23.99 72 24.98 72 26 C72.66 26 73.32 26 74 26 C76 29 76 29 76 32 C76.66 32 77.32 32 78 32 C78 33.98 78 35.96 78 38 C78.66 38 79.32 38 80 38 C81.22517308 43.66642551 81.09228867 49.23708518 81 55 C80.36191406 55.06058594 79.72382812 55.12117188 79.06640625 55.18359375 C78.24011719 55.26738281 77.41382813 55.35117187 76.5625 55.4375 C75.73878906 55.51871094 74.91507813 55.59992188 74.06640625 55.68359375 C72.01337975 55.78930815 72.01337975 55.78930815 71 57 C69.37877577 57.14507265 67.75180111 57.2271001 66.125 57.28125 C64.64773438 57.33732422 64.64773438 57.33732422 63.140625 57.39453125 C61.046875 57.46484375 58.953125 57.53515625 56.859375 57.60546875 C55.38210938 57.66154297 55.38210938 57.66154297 53.875 57.71875 C52.96492188 57.74904297 52.05484375 57.77933594 51.1171875 57.81054688 C49.01574568 57.77049759 49.01574568 57.77049759 48 59 C45.48863896 59.09975032 43.01096585 59.13882183 40.5 59.125 C39.79746094 59.12886719 39.09492187 59.13273437 38.37109375 59.13671875 C33.12661378 59.12661378 33.12661378 59.12661378 32 58 C31.92820036 56.48071962 31.91607993 54.95832518 31.9375 53.4375 C31.94652344 52.61121094 31.95554687 51.78492188 31.96484375 50.93359375 C31.97644531 50.29550781 31.98804688 49.65742188 32 49 C31.34 49 30.68 49 30 49 C30 47.68 30 46.36 30 45 C29.34 45 28.68 45 28 45 C27.67 43.35 27.34 41.7 27 40 C25.68 40 24.36 40 23 40 C23 39.34 23 38.68 23 38 C19.7 38.66 16.4 39.32 13 40 C13 40.66 13 41.32 13 42 C12.01 42.66 11.02 43.32 10 44 C9.27034634 46.56282742 9.27034634 46.56282742 9 49 C8.34 49 7.68 49 7 49 C7 61.54 7 74.08 7 87 C7.66 87 8.32 87 9 87 C9 88.98 9 90.96 9 93 C9.66 93 10.32 93 11 93 C11 93.66 11 94.32 11 95 C11.66 95 12.32 95 13 95 C13 95.66 13 96.32 13 97 C14.32 97 15.64 97 17 97 C17 97.66 17 98.32 17 99 C19.64 99 22.28 99 25 99 C25 98.34 25 97.68 25 97 C25.99 97 26.98 97 28 97 C28 96.34 28 95.68 28 95 C28.66 95 29.32 95 30 95 C30.144375 94.4225 30.28875 93.845 30.4375 93.25 C30.95833333 91.16666667 31.47916667 89.08333333 32 87 C32.66 87 33.32 87 34 87 C34 84.69 34 82.38 34 80 C44.61171513 79.90411101 55.20894207 79.90115979 65.8125 80.375 C67.0185791 80.4212854 67.0185791 80.4212854 68.24902344 80.46850586 C73.40276945 80.72791899 78.02955336 81.60578122 83 83 C82.78150391 84.29744141 82.78150391 84.29744141 82.55859375 85.62109375 C82.20546245 87.75716768 81.8629213 89.89504325 81.53515625 92.03515625 C81.30119141 93.53369141 81.30119141 93.53369141 81.0625 95.0625 C80.90910156 96.06410156 80.75570313 97.06570313 80.59765625 98.09765625 C80.01605992 100.92200966 79.15566196 103.36470389 78 106 C77.34 106 76.68 106 76 106 C76 107.32 76 108.64 76 110 C75.34 110 74.68 110 74 110 C74 110.66 74 111.32 74 112 C73.34 112 72.68 112 72 112 C71.896875 112.639375 71.79375 113.27875 71.6875 113.9375 C71.460625 114.618125 71.23375 115.29875 71 116 C69.515 116.495 69.515 116.495 68 117 C68 117.66 68 118.32 68 119 C67.34 119 66.68 119 66 119 C66 119.66 66 120.32 66 121 C65.34 121 64.68 121 64 121 C64 121.66 64 122.32 64 123 C63.34 123 62.68 123 62 123 C61.896875 123.61875 61.79375 124.2375 61.6875 124.875 C61 127 61 127 58 129 C57.01 129 56.02 129 55 129 C55 129.66 55 130.32 55 131 C53.68 131 52.36 131 51 131 C51 131.66 51 132.32 51 133 C45.10261508 135.29342747 40.33393082 136.34548714 34 136 C34 136.66 34 137.32 34 138 C29.74585377 138.02465622 25.49174502 138.04283899 21.23754883 138.05493164 C19.78929927 138.05997101 18.34105483 138.06680253 16.89282227 138.07543945 C14.81525412 138.08752247 12.73775303 138.09323211 10.66015625 138.09765625 C9.40855713 138.10289307 8.15695801 138.10812988 6.86743164 138.11352539 C4 138 4 138 3 137 C1.2984375 136.8453125 1.2984375 136.8453125 -0.4375 136.6875 C-7.78961516 135.85593222 -14.5159056 132.41268126 -21 129 C-21 128.34 -21 127.68 -21 127 C-21.598125 126.896875 -22.19625 126.79375 -22.8125 126.6875 C-25.31258286 125.90175967 -26.37535082 125.03081147 -28 123 C-28 122.34 -28 121.68 -28 121 C-28.66 121 -29.32 121 -30 121 C-30 120.34 -30 119.68 -30 119 C-30.66 119 -31.32 119 -32 119 C-32 118.34 -32 117.68 -32 117 C-32.61875 116.896875 -33.2375 116.79375 -33.875 116.6875 C-36 116 -36 116 -38 113 C-38 112.01 -38 111.02 -38 110 C-38.66 110 -39.32 110 -40 110 C-40 109.34 -40 108.68 -40 108 C-40.66 108 -41.32 108 -42 108 C-42 106.68 -42 105.36 -42 104 C-42.66 104 -43.32 104 -44 104 C-44.33 101.03 -44.66 98.06 -45 95 C-45.66 95 -46.32 95 -47 95 C-47 93.02 -47 91.04 -47 89 C-47.66 89 -48.32 89 -49 89 C-49.06058594 88.07316406 -49.12117188 87.14632812 -49.18359375 86.19140625 C-49.26738281 84.99386719 -49.35117188 83.79632813 -49.4375 82.5625 C-49.51871094 81.36753906 -49.59992188 80.17257812 -49.68359375 78.94140625 C-49.67656114 76.11429756 -49.67656114 76.11429756 -51 75 C-51.09823937 73.33570949 -51.12973631 71.66718069 -51.125 70 C-51.12757812 69.0925 -51.13015625 68.185 -51.1328125 67.25 C-51 65 -51 65 -50 64 C-49.71131944 60.54041557 -49.55098503 57.08048569 -49.37890625 53.61328125 C-49.01345468 50.12830497 -48.23876422 47.26492108 -47 44 C-46.34 44 -45.68 44 -45 44 C-44.97421875 43.43152344 -44.9484375 42.86304688 -44.921875 42.27734375 C-44.49565767 36.47497597 -43.20178217 32.8543149 -40 28 C-39.34 28 -38.68 28 -38 28 C-38 27.01 -38 26.02 -38 25 C-37.34 25 -36.68 25 -36 25 C-36 24.34 -36 23.68 -36 23 C-35.34 23 -34.68 23 -34 23 C-34 22.34 -34 21.68 -34 21 C-33.34 21 -32.68 21 -32 21 C-32 20.34 -32 19.68 -32 19 C-31.34 19 -30.68 19 -30 19 C-30 18.34 -30 17.68 -30 17 C-29.34 17 -28.68 17 -28 17 C-27.88011719 16.10861328 -27.88011719 16.10861328 -27.7578125 15.19921875 C-26.28712362 10.93118866 -21.84178596 8.99180877 -18 7 C-15.55205279 6.31137601 -13.55911185 6.10889838 -11 6 C-11 5.34 -11 4.68 -11 4 C-9.68 4 -8.36 4 -7 4 C-7 3.34 -7 2.68 -7 2 C-4.69 2 -2.38 2 0 2 C0 1.34 0 0.68 0 0 Z " fill="#29BDE8" transform="translate(1389,411)"/>
<path d="M0 0 C1.72045915 0.00032605 1.72045915 0.00032605 3.47567505 0.00065869 C4.11588839 -0.00194859 4.75610174 -0.00455588 5.41571549 -0.00724217 C7.58161753 -0.01358659 9.7472345 -0.00555188 11.91312832 0.0023095 C13.47331737 0.00072268 15.03350574 -0.00173966 16.59369218 -0.00500691 C20.89707095 -0.01144674 25.20035626 -0.00533203 29.50372893 0.00275737 C34.13838784 0.00931437 38.77303596 0.00439029 43.40769619 0.00087517 C52.49306724 -0.00417594 61.57840199 0.00148613 70.66376854 0.01072548 C81.23290924 0.02108903 91.80204201 0.02103983 102.37118685 0.0205529 C121.22212469 0.02005184 140.07304559 0.02922589 158.92397732 0.04373711 C177.23745702 0.05782742 195.55092181 0.06490784 213.864407 0.06424493 C215.55639722 0.06418499 215.55639722 0.06418499 217.28256906 0.06412385 C218.97156573 0.06406331 218.97156573 0.06406331 220.69468355 0.06400156 C241.51351061 0.06331256 262.3323313 0.06919672 283.1511563 0.07815478 C290.52755382 0.08117721 297.90395017 0.08223505 305.28034824 0.08268708 C314.26247483 0.08336767 323.24459068 0.08781075 332.22671271 0.09701989 C336.81408287 0.10165189 341.40143926 0.10467825 345.98881191 0.10342568 C350.18123819 0.10233642 354.37363395 0.10581336 358.56605386 0.11307421 C360.08955387 0.11489825 361.61305701 0.11500753 363.13655717 0.11330692 C365.1937651 0.11126339 367.25097653 0.11587834 369.30817932 0.12091321 C370.45498973 0.12161763 371.60180014 0.12232206 372.78336239 0.12304783 C375.32900661 0.24954766 375.32900661 0.24954766 376.32900661 1.24954766 C376.40172403 3.60268321 376.41271529 5.95788435 376.39150661 8.31204766 C376.38248317 9.60239922 376.37345974 10.89275079 376.36416286 12.22220391 C376.34676052 13.72073907 376.34676052 13.72073907 376.32900661 15.24954766 C327.93627542 15.27241186 279.54354476 15.29004478 231.15080923 15.30061299 C225.44401369 15.30186377 219.73721816 15.30315809 214.03042263 15.3044793 C212.89425133 15.30474161 211.75808002 15.30500392 210.58747929 15.30527418 C192.16501933 15.30963135 173.74256248 15.31751916 155.32010437 15.32670046 C136.43194246 15.33603568 117.54378219 15.34160299 98.65561807 15.34363616 C86.99062674 15.34501166 75.32564418 15.3493637 63.66065555 15.35746413 C55.67309849 15.36272997 47.685546 15.36435233 39.69798733 15.36304904 C35.08227507 15.3624054 30.4665782 15.36342601 25.85086864 15.36875314 C21.6324607 15.37358647 17.41407861 15.37388675 13.19566952 15.37044656 C11.66268692 15.3700208 10.12970277 15.37131709 8.59672327 15.37443084 C6.52666813 15.37839388 4.45670866 15.37631166 2.38665527 15.37259549 C1.23268519 15.37297521 0.0787151 15.37335493 -1.11022377 15.37374616 C-3.67099339 15.24954766 -3.67099339 15.24954766 -4.67099339 14.24954766 C-4.79614267 12.27335319 -4.84672098 10.29216593 -4.85849339 8.31204766 C-4.87267308 7.23052422 -4.88685276 6.14900079 -4.90146214 5.03470391 C-4.58873137 1.25543207 -3.7907498 0.35416514 0 0 Z " fill="#F47C20" transform="translate(34.67099338769913,474.7504523396492)"/>
<path d="M0 0 C125.07 0 250.14 0 379 0 C379 0.66 379 1.32 379 2 C379.66 2 380.32 2 381 2 C381.05391993 3.79133978 381.09275571 5.58313899 381.125 7.375 C381.14820313 8.37273437 381.17140625 9.37046875 381.1953125 10.3984375 C381 13 381 13 379 15 C376.32144392 15.24839699 376.32144392 15.24839699 372.83492088 15.24609566 C372.19271957 15.24840335 371.55051825 15.25071103 370.88885629 15.25308865 C368.71619745 15.25842294 366.54382935 15.24937649 364.3711853 15.24050903 C362.80615914 15.2413804 361.24113327 15.24313011 359.67610896 15.24568737 C355.35939418 15.25017843 351.04277787 15.2421332 346.72607565 15.23213124 C342.0771239 15.22352425 337.42817806 15.22641495 332.77922058 15.22793579 C324.71922863 15.22898639 316.65926896 15.22269155 308.59928513 15.21146011 C296.9457902 15.19523172 285.29231094 15.18999984 273.63880594 15.18748413 C254.73347896 15.18310284 235.82816919 15.16978198 216.92285156 15.15087891 C198.55403734 15.13253133 180.18522778 15.11836934 161.81640625 15.10986328 C160.11908743 15.10907511 160.11908743 15.10907511 158.38747935 15.10827102 C152.71105764 15.10566101 147.0346359 15.10313358 141.35821414 15.10064721 C94.23879738 15.0799012 47.11939985 15.04451559 0 15 C0 10.05 0 5.1 0 0 Z " fill="#F27B21" transform="translate(187,346)"/>
<path d="M0 0 C125.07 0 250.14 0 379 0 C379 4.95 379 9.9 379 15 C253.93 15 128.86 15 0 15 C0 14.34 0 13.68 0 13 C-0.66 13 -1.32 13 -2 13 C-2 9.37 -2 5.74 -2 2 C-1.34 2 -0.68 2 0 2 C0 1.34 0 0.68 0 0 Z " fill="#F17A22" transform="translate(130,411)"/>
<path d="M0 0 C125.07 0 250.14 0 379 0 C379 0.66 379 1.32 379 2 C379.66 2 380.32 2 381 2 C381 5.63 381 9.26 381 13 C380.34 13 379.68 13 379 13 C379 13.66 379 14.32 379 15 C253.93 15 128.86 15 0 15 C0 10.05 0 5.1 0 0 Z " fill="#F07A20" transform="translate(1351,257)"/>
<path d="M0 0 C125.07 0 250.14 0 379 0 C379 0.66 379 1.32 379 2 C379.66 2 380.32 2 381 2 C381.08086147 3.79093191 381.13912702 5.58289628 381.1875 7.375 C381.22230469 8.37273437 381.25710938 9.37046875 381.29296875 10.3984375 C381.19628906 11.25695312 381.09960938 12.11546875 381 13 C377.44151451 15.37232366 375.94853814 15.24889013 371.72749043 15.24609566 C371.08582364 15.24840335 370.44415685 15.25071103 369.78304562 15.25308865 C367.61822583 15.25841117 365.45369948 15.24938612 363.28889465 15.24050903 C361.72713024 15.24138064 360.16536611 15.2431308 358.60360354 15.24568737 C354.3005495 15.25017371 349.99759444 15.24213961 345.69455302 15.23213124 C341.05857059 15.22351751 336.42259402 15.22641543 331.78660583 15.22793579 C323.7506407 15.22898596 315.71470797 15.22269559 307.67875099 15.21146011 C296.06002115 15.19522594 284.44130702 15.18999924 272.82256707 15.18748413 C253.97325522 15.18310375 235.12396066 15.16978536 216.2746582 15.15087891 C197.96118252 15.13252897 179.64771153 15.11836813 161.33422852 15.10986328 C159.64178428 15.10907511 159.64178428 15.10907511 157.91514925 15.10827102 C152.25498225 15.105661 146.59481521 15.10313357 140.93464816 15.10064721 C93.95642002 15.07990404 46.97821117 15.04452082 0 15 C0 10.05 0 5.1 0 0 Z " fill="#F3791E" transform="translate(1253,322)"/>
<path d="M0 0 C124.41 0 248.82 0 377 0 C377 0.66 377 1.32 377 2 C377.66 2 378.32 2 379 2 C379 5.63 379 9.26 379 13 C378.34 13 377.68 13 377 13 C377 13.66 377 14.32 377 15 C252.59 15 128.18 15 0 15 C0 14.34 0 13.68 0 13 C-0.66 13 -1.32 13 -2 13 C-2 9.37 -2 5.74 -2 2 C-1.34 2 -0.68 2 0 2 C0 1.34 0 0.68 0 0 Z " fill="#F3781D" transform="translate(1410,193)"/>
<path d="M0 0 C0.66 0.33 1.32 0.66 2 1 C2 25.75 2 50.5 2 76 C1.01 76 0.02 76 -1 76 C-1.02312446 66.23849012 -1.04091561 56.4769867 -1.05181217 46.71545506 C-1.05704078 42.18325906 -1.06413801 37.65108173 -1.07543945 33.11889648 C-1.08626914 28.7487717 -1.09227701 24.37866492 -1.09487724 20.00852776 C-1.09673135 18.33749037 -1.10035168 16.66645403 -1.10573006 14.99542427 C-1.11294159 12.66302449 -1.1139909 10.33070007 -1.11352539 7.99829102 C-1.11712067 7.3005809 -1.12071594 6.60287079 -1.12442017 5.88401794 C-1.11405216 1.11405216 -1.11405216 1.11405216 0 0 Z " fill="#39C4EE" transform="translate(1539,469)"/>
<path d="M0 0 C0.99 0.33 1.98 0.66 3 1 C3.24424119 8.75896576 3.45670337 16.51833289 3.64697266 24.27880859 C3.71547696 26.91930877 3.79128516 29.55962988 3.87451172 32.19970703 C3.99280694 35.99228045 4.08491385 39.78471992 4.171875 43.578125 C4.21439392 44.76053772 4.25691284 45.94295044 4.30072021 47.16119385 C4.32104309 48.26203308 4.34136597 49.36287231 4.36230469 50.49707031 C4.38895203 51.46525696 4.41559937 52.4334436 4.4430542 53.43096924 C4 56 4 56 0 60 C0 40.2 0 20.4 0 0 Z " fill="#3BC5F1" transform="translate(1538,370)"/>
<path d="M0 0 C0.33 0 0.66 0 1 0 C1.66 5.94 2.32 11.88 3 18 C6.24431976 18.81107994 8.58771536 19.14503686 11.86035156 19.20532227 C13.30139252 19.2352401 13.30139252 19.2352401 14.77154541 19.26576233 C16.31548981 19.29083107 16.31548981 19.29083107 17.890625 19.31640625 C18.95037537 19.33718735 20.01012573 19.35796844 21.10198975 19.37937927 C24.48459438 19.44472186 27.86727612 19.50368881 31.25 19.5625 C33.54427878 19.60569975 35.83854979 19.64931451 38.1328125 19.69335938 C43.75512702 19.8003876 49.3775181 19.90218239 55 20 C55 20.66 55 21.32 55 22 C37.51 22 20.02 22 2 22 C2 21.34 2 20.68 2 20 C1.34 20 0.68 20 0 20 C0 13.4 0 6.8 0 0 Z " fill="#206B9F" transform="translate(843,271)"/>
<path d="M0 0 C2.64 0 5.28 0 8 0 C6.25 3.875 6.25 3.875 4 5 C2.52911432 12.71484409 2.66283416 20.66756861 2.4375 28.5 C2.39422263 29.90886473 2.35060569 31.31771907 2.30664062 32.7265625 C2.20109429 36.1509546 2.09898202 39.57541292 2 43 C1.34 43 0.68 43 0 43 C0 28.81 0 14.62 0 0 Z " fill="#41B7D6" transform="translate(1067,369)"/>
<path d="M0 0 C1.39120471 0.00015906 2.78241534 0.00585033 4.17358398 0.01586914 C4.90463852 0.01728409 5.63569305 0.01869904 6.38890076 0.02015686 C8.73253406 0.02577131 11.07607313 0.03832617 13.41967773 0.05102539 C15.00496282 0.05603853 16.59024939 0.06060176 18.17553711 0.06469727 C22.06945383 0.07574542 25.96329979 0.09301967 29.85717773 0.11352539 C29.85717773 0.44352539 29.85717773 0.77352539 29.85717773 1.11352539 C27.54717773 1.11352539 25.23717773 1.11352539 22.85717773 1.11352539 C22.85717773 1.77352539 22.85717773 2.43352539 22.85717773 3.11352539 C19.10724295 3.17164312 15.35742422 3.20716132 11.60717773 3.23852539 C10.01196289 3.26366211 10.01196289 3.26366211 8.38452148 3.28930664 C6.84731445 3.29897461 6.84731445 3.29897461 5.27905273 3.30883789 C3.8651123 3.32454834 3.8651123 3.32454834 2.42260742 3.34057617 C-0.24234168 3.10471752 -1.86145319 2.47014198 -4.14282227 1.11352539 C-3.14282227 0.11352539 -3.14282227 0.11352539 0 0 Z " fill="#DC752B" transform="translate(730.142822265625,307.886474609375)"/>
<path d="M0 0 C0.76376953 -0.00386719 1.52753906 -0.00773438 2.31445312 -0.01171875 C6.95763212 -0.0037749 11.35747885 0.35862196 15.9375 1.125 C15.9375 1.785 15.9375 2.445 15.9375 3.125 C5.3775 3.125 -5.1825 3.125 -16.0625 3.125 C-16.3925 2.465 -16.7225 1.805 -17.0625 1.125 C-11.33103124 0.30342427 -5.78628297 -0.02944673 0 0 Z " fill="#35C3EB" transform="translate(1261.0625,545.875)"/>
<path d="M0 0 C0.33 0.66 0.66 1.32 1 2 C-6.92 2 -14.84 2 -23 2 C-23 1.34 -23 0.68 -23 0 C-7.62491355 -1.42159405 -7.62491355 -1.42159405 0 0 Z " fill="#35C4EB" transform="translate(1422,547)"/>
<path d="M0 0 C2.06723714 3.10085571 2.24497423 3.72931681 2.1953125 7.23046875 C2.18886719 8.03291016 2.18242188 8.83535156 2.17578125 9.66210938 C2.15902344 10.49548828 2.14226562 11.32886719 2.125 12.1875 C2.11597656 13.03248047 2.10695313 13.87746094 2.09765625 14.74804688 C2.07410703 16.83215243 2.03823647 18.91611217 2 21 C1.34 21 0.68 21 0 21 C-1.80991127 14.21283273 -1.43609916 6.82147102 0 0 Z " fill="#35C1EB" transform="translate(1328,469)"/>
<path d="M0 0 C1.65 0 3.3 0 5 0 C5 2.31 5 4.62 5 7 C4.01 7.495 4.01 7.495 3 8 C3 6.35 3 4.7 3 3 C-3.27 3 -9.54 3 -16 3 C-16 2.67 -16 2.34 -16 2 C-10.72 2 -5.44 2 0 2 C0 1.34 0 0.68 0 0 Z " fill="#3DC1F4" transform="translate(1100,412)"/>
<path d="M0 0 C0 0.66 0 1.32 0 2 C-1.32 2 -2.64 2 -4 2 C-4.33 3.32 -4.66 4.64 -5 6 C-5.66 6 -6.32 6 -7 6 C-7 6.66 -7 7.32 -7 8 C-7.66 8 -8.32 8 -9 8 C-9 8.66 -9 9.32 -9 10 C-9.99 10.33 -10.98 10.66 -12 11 C-12 9.68 -12 8.36 -12 7 C-11.34 7 -10.68 7 -10 7 C-9.7525 6.401875 -9.505 5.80375 -9.25 5.1875 C-6.83338246 0.9584193 -4.85302301 0 0 0 Z " fill="#D97525" transform="translate(1072,363)"/>
<path d="M0 0 C0.99 0.33 1.98 0.66 3 1 C3.08121924 2.60332791 3.13929134 4.20784026 3.1875 5.8125 C3.23970703 7.15248047 3.23970703 7.15248047 3.29296875 8.51953125 C3 11 3 11 0 14 C0 9.38 0 4.76 0 0 Z " fill="#38C2E8" transform="translate(1538,370)"/>
<path d="M0 0 C1.18613892 0.00785522 1.18613892 0.00785522 2.39624023 0.01586914 C3.67724609 0.02070313 3.67724609 0.02070313 4.98413086 0.02563477 C5.88196289 0.03401367 6.77979492 0.04239258 7.70483398 0.05102539 C8.6065332 0.05553711 9.50823242 0.06004883 10.43725586 0.06469727 C12.67234712 0.07652315 14.90730835 0.09300319 17.14233398 0.11352539 C17.14233398 0.44352539 17.14233398 0.77352539 17.14233398 1.11352539 C14.56047967 1.50380569 11.97812416 1.87615687 9.39233398 2.23852539 C8.29791992 2.40674805 8.29791992 2.40674805 7.18139648 2.57836914 C3.24177308 3.11559051 0.48010733 3.48510119 -2.85766602 1.11352539 C-1.85766602 0.11352539 -1.85766602 0.11352539 0 0 Z " fill="#D15D10" transform="translate(728.857666015625,307.886474609375)"/>
<path d="M0 0 C1.98 0 3.96 0 6 0 C4.25 3.875 4.25 3.875 2 5 C1.53476937 6.89533342 1.53476937 6.89533342 1.375 9.0625 C1.25125 10.361875 1.1275 11.66125 1 13 C0.67 13 0.34 13 0 13 C0 8.71 0 4.42 0 0 Z " fill="#23B0D4" transform="translate(1069,369)"/>
<path d="M0 0 C2.97 0 5.94 0 9 0 C8.67 0.99 8.34 1.98 8 3 C5.69 3 3.38 3 1 3 C0.67 2.01 0.34 1.02 0 0 Z " fill="#1AB7E5" transform="translate(1570,411)"/>
<path d="M0 0 C0.66 0 1.32 0 2 0 C2 2.31 2 4.62 2 7 C1.01 7.33 0.02 7.66 -1 8 C-1.04241723 5.66705225 -1.04092937 3.33297433 -1 1 C-0.67 0.67 -0.34 0.34 0 0 Z " fill="#2670AA" transform="translate(974,282)"/>
</svg>
