<?xml version="1.0" encoding="UTF-8"?>
<svg xmlns="http://www.w3.org/2000/svg" viewBox="0 0 1887 640">
  <path d="M0 0 C1.79158489 -0.02696365 3.58328473 -0.04637917 5.375 -0.0625 C6.37273438 -0.07410156 7.37046875 -0.08570313 8.3984375 -0.09765625 C11 0 11 0 13 1 C15.90323951 1.14507785 18.78625973 1.23427786 21.69140625 1.28125 C22.55185043 1.29965942 23.41229462 1.31806885 24.29881287 1.33703613 C27.98968831 1.41588195 31.68074912 1.48360175 35.37182617 1.55224609 C38.06178174 1.60384401 40.75157392 1.66113629 43.44140625 1.71875 C44.70386925 1.73911316 44.70386925 1.73911316 45.99183655 1.7598877 C51.88717458 1.88717458 51.88717458 1.88717458 53 3 C55.79810928 3.14783039 58.57467636 3.23505316 61.375 3.28125 C62.21466309 3.29965942 63.05432617 3.31806885 63.91943359 3.33703613 C66.61288236 3.39597566 69.30639521 3.44871607 72 3.5 C75.54180815 3.567433 79.08340276 3.64110128 82.625 3.71875 C83.85935791 3.73911316 83.85935791 3.73911316 85.11865234 3.7598877 C90.88719819 3.88719819 90.88719819 3.88719819 92 5 C94.88252645 5.16023562 97.74378527 5.25954029 100.62890625 5.31640625 C101.49313705 5.33718735 102.35736786 5.35796844 103.24778748 5.37937927 C106.01927445 5.44497114 108.79085921 5.50380418 111.5625 5.5625 C113.43685923 5.60567608 115.31120843 5.64929006 117.18554688 5.69335938 C121.79026336 5.80066227 126.39507858 5.90190215 131 6 C131 6.66 131 7.32 131 8 C132.76428345 7.99214478 132.76428345 7.99214478 134.56420898 7.98413086 C138.91202031 7.96608337 143.2598283 7.95456892 147.60766602 7.94506836 C149.4924373 7.94002756 151.37720465 7.93319502 153.26196289 7.92456055 C155.96501636 7.91248383 158.66801831 7.90676932 161.37109375 7.90234375 C162.21900986 7.89718246 163.06692596 7.89202118 163.9405365 7.88670349 C165.96071068 7.88650805 167.98077934 7.93793789 170 8 C170.33 8.33 170.66 8.66 171 9 C174.42501072 9.23659614 177.84280568 9.39673972 181.2734375 9.51757812 C183.18686533 9.60910491 185.09512839 9.79739852 187 10 C188.58696844 13.17393689 188.1431447 16.58174205 188.125 20.0625 C188.12886719 20.80822266 188.13273437 21.55394531 188.13671875 22.32226562 C188.12663501 27.87336499 188.12663501 27.87336499 187 29 C186.85492735 30.62122423 186.7728999 32.24819889 186.71875 33.875 C186.66267578 35.35226563 186.66267578 35.35226563 186.60546875 36.859375 C186.55326172 38.41398437 186.55326172 38.41398437 186.5 40 C186.43143151 42.04181732 186.35874142 44.08350185 186.28125 46.125 C186.23581055 47.49011719 186.23581055 47.49011719 186.18945312 48.8828125 C186 51 186 51 185 52 C184.85469013 53.69428307 184.77283477 55.39410742 184.71875 57.09375 C184.66267578 58.63869141 184.66267578 58.63869141 184.60546875 60.21484375 C184.55326172 61.84099609 184.55326172 61.84099609 184.5 63.5 C184.43143859 65.63556094 184.35874988 67.77099476 184.28125 69.90625 C184.23581055 71.33420898 184.23581055 71.33420898 184.18945312 72.79101562 C184 75 184 75 183 76 C182.85492735 77.62122423 182.7728999 79.24819889 182.71875 80.875 C182.66267578 82.35226563 182.66267578 82.35226563 182.60546875 83.859375 C182.55326172 85.41398437 182.55326172 85.41398437 182.5 87 C182.43143151 89.04181732 182.35874142 91.08350185 182.28125 93.125 C182.23581055 94.49011719 182.23581055 94.49011719 182.18945312 95.8828125 C182 98 182 98 181 99 C180.84285346 100.63256758 180.74914586 102.27135338 180.68359375 103.91015625 C180.62075195 105.39418945 180.62075195 105.39418945 180.55664062 106.90820312 C180.49766602 108.46958008 180.49766602 108.46958008 180.4375 110.0625 C180.39431641 111.10728516 180.35113281 112.15207031 180.30664062 113.22851562 C180.20018775 115.81886884 180.0981724 118.40932186 180 121 C179.34 121 178.68 121 178 121 C178 128.59 178 136.18 178 144 C177.34 144 176.68 144 176 144 C176.00523682 144.59200195 176.01047363 145.18400391 176.01586914 145.79394531 C176.09825534 156.6188667 176.09865803 167.43329981 175.625 178.25 C175.59414307 179.08821289 175.56328613 179.92642578 175.53149414 180.79003906 C175.33910722 184.64097716 175.18055294 186.7291706 173 190 C170.6171875 190.29296875 170.6171875 190.29296875 167.875 190.1875 C166.96492188 190.16042969 166.05484375 190.13335937 165.1171875 190.10546875 C164.41851563 190.07066406 163.71984375 190.03585938 163 190 C163 189.34 163 188.68 163 188 C162.2575 187.855625 161.515 187.71125 160.75 187.5625 C158.47972261 187.09812508 156.24240521 186.58136431 154 186 C154 185.34 154 184.68 154 184 C152.68 184 151.36 184 150 184 C150 183.34 150 182.68 150 182 C148.68 182 147.36 182 146 182 C146 181.34 146 180.68 146 180 C144.68 180 143.36 180 142 180 C142 179.34 142 178.68 142 178 C140.783125 177.87625 139.56625 177.7525 138.3125 177.625 C134.93520941 177.21108694 132.10243305 176.45426549 129 175 C129 174.34 129 173.68 129 173 C127.68 173 126.36 173 125 173 C125 172.34 125 171.68 125 171 C124.01 171 123.02 171 122 171 C122 170.34 122 169.68 122 169 C121.0925 168.855625 120.185 168.71125 119.25 168.5625 C116.78523044 168.13590527 114.41152893 167.64925779 112 167 C112 166.34 112 165.68 112 165 C110.68 165 109.36 165 108 165 C108 164.34 108 163.68 108 163 C106.68 163 105.36 163 104 163 C104 163.66 104 164.32 104 165 C103.34 165 102.68 165 102 165 C101.34 166.32 100.68 167.64 100 169 C99.01 169 98.02 169 97 169 C97 169.66 97 170.32 97 171 C96.34 171 95.68 171 95 171 C95 171.66 95 172.32 95 173 C94.34 173 93.68 173 93 173 C93 173.66 93 174.32 93 175 C90.04518508 177.74375671 89.22528092 178 85 178 C85 178.66 85 179.32 85 180 C84.34 180 83.68 180 83 180 C82.67 181.32 82.34 182.64 82 184 C81.34 184 80.68 184 80 184 C80 184.66 80 185.32 80 186 C77.03 186.99 77.03 186.99 74 188 C74 188.66 74 189.32 74 190 C73.34 190 72.68 190 72 190 C72 190.66 72 191.32 72 192 C71.34 192 70.68 192 70 192 C70 192.66 70 193.32 70 194 C65.61538462 197 65.61538462 197 63 197 C63 197.66 63 198.32 63 199 C62.34 199 61.68 199 61 199 C61 199.66 61 200.32 61 201 C60.34 201 59.68 201 59 201 C59 201.66 59 202.32 59 203 C58.34 203 57.68 203 57 203 C57 203.66 57 204.32 57 205 C55.68 205 54.36 205 53 205 C53 205.66 53 206.32 53 207 C52.34 207 51.68 207 51 207 C51 207.66 51 208.32 51 209 C50.34 209 49.68 209 49 209 C49 209.66 49 210.32 49 211 C48.34 211 47.68 211 47 211 C47 211.66 47 212.32 47 213 C45.35 213.33 43.7 213.66 42 214 C42 214.66 42 215.32 42 216 C41.34 216 40.68 216 40 216 C40 216.66 40 217.32 40 218 C39.34 218 38.68 218 38 218 C38 218.66 38 219.32 38 220 C37.34 220 36.68 220 36 220 C36 220.66 36 221.32 36 222 C34.68 222 33.36 222 32 222 C32 222.66 32 223.32 32 224 C31.34 224 30.68 224 30 224 C29.9071875 224.86625 29.9071875 224.86625 29.8125 225.75 C28.64473159 228.98382021 26.83624161 230.13065894 24 232 C21.1875 232.75 21.1875 232.75 19 233 C19 233.66 19 234.32 19 235 C18.34 235 17.68 235 17 235 C17 235.66 17 236.32 17 237 C16.34 237 15.68 237 15 237 C15 237.66 15 238.32 15 239 C14.34 239 13.68 239 13 239 C13 239.66 13 240.32 13 241 C12.01 241 11.02 241 10 241 C10 241.66 10 242.32 10 243 C9.34 243 8.68 243 8 243 C8 243.66 8 244.32 8 245 C7.34 245 6.68 245 6 245 C6 245.66 6 246.32 6 247 C4.3203125 248.2890625 4.3203125 248.2890625 2.125 249.625 C1.40570312 250.07101562 0.68640625 250.51703125 -0.0546875 250.9765625 C-2 252 -2 252 -4 252 C-4 252.66 -4 253.32 -4 254 C-4.66 254 -5.32 254 -6 254 C-6 254.66 -6 255.32 -6 256 C-6.66 256 -7.32 256 -8 256 C-8 256.66 -8 257.32 -8 258 C-8.99 258 -9.98 258 -11 258 C-11 258.66 -11 259.32 -11 260 C-11.66 260 -12.32 260 -13 260 C-13 260.66 -13 261.32 -13 262 C-13.66 262 -14.32 262 -15 262 C-15 262.66 -15 263.32 -15 264 C-15.66 264 -16.32 264 -17 264 C-17 264.66 -17 265.32 -17 266 C-17.66 266 -18.32 266 -19 266 C-19 266.66 -19 267.32 -19 268 C-20.32 268 -21.64 268 -23 268 C-23 268.66 -23 269.32 -23 270 C-24.375 271.625 -24.375 271.625 -26 273 C-26.66 273 -27.32 273 -28 273 C-28 273.66 -28 274.32 -28 275 C-31 277 -31 277 -34 277 C-34 277.66 -34 278.32 -34 279 C-34.66 279 -35.32 279 -36 279 C-36 279.66 -36 280.32 -36 281 C-36.66 281 -37.32 281 -38 281 C-38 281.66 -38 282.32 -38 283 C-38.66 283 -39.32 283 -40 283 C-40 283.66 -40 284.32 -40 285 C-44.38461538 288 -44.38461538 288 -47 288 C-47 288.66 -47 289.32 -47 290 C-47.66 290 -48.32 290 -49 290 C-49 290.66 -49 291.32 -49 292 C-49.66 292 -50.32 292 -51 292 C-51 292.66 -51 293.32 -51 294 C-52.32 294 -53.64 294 -55 294 C-55 294.66 -55 295.32 -55 296 C-55.66 296 -56.32 296 -57 296 C-57 296.66 -57 297.32 -57 298 C-57.66 298 -58.32 298 -59 298 C-59 298.66 -59 299.32 -59 300 C-59.66 300 -60.32 300 -61 300 C-61 300.66 -61 301.32 -61 302 C-61.66 302 -62.32 302 -63 302 C-63 302.66 -63 303.32 -63 304 C-63.99 304 -64.98 304 -66 304 C-66 304.66 -66 305.32 -66 306 C-67.32 306.33 -68.64 306.66 -70 307 C-70 307.66 -70 308.32 -70 309 C-70.66 309 -71.32 309 -72 309 C-72 309.66 -72 310.32 -72 311 C-72.66 311 -73.32 311 -74 311 C-74 311.66 -74 312.32 -74 313 C-75.32 313 -76.64 313 -78 313 C-78 313.66 -78 314.32 -78 315 C-78.66 315 -79.32 315 -80 315 C-80.226875 315.5775 -80.45375 316.155 -80.6875 316.75 C-82.34848222 319.59739809 -84.31524561 321.12067193 -87 323 C-87.66 323 -88.32 323 -89 323 C-89 323.66 -89 324.32 -89 325 C-90.32 325.33 -91.64 325.66 -93 326 C-93 326.66 -93 327.32 -93 328 C-93.66 328 -94.32 328 -95 328 C-95 328.66 -95 329.32 -95 330 C-96.32 330 -97.64 330 -99 330 C-99.33 331.32 -99.66 332.64 -100 334 C-100.66 334 -101.32 334 -102 334 C-102 334.66 -102 335.32 -102 336 C-102.66 336 -103.32 336 -104 336 C-104 336.66 -104 337.32 -104 338 C-107 340 -107 340 -110 340 C-110 340.66 -110 341.32 -110 342 C-110.66 342 -111.32 342 -112 342 C-112 342.66 -112 343.32 -112 344 C-113.32 344.33 -114.64 344.66 -116 345 C-116 345.66 -116 346.32 -116 347 C-116.66 347 -117.32 347 -118 347 C-118 347.66 -118 348.32 -118 349 C-118.99 349 -119.98 349 -121 349 C-121 349.66 -121 350.32 -121 351 C-121.66 351 -122.32 351 -123 351 C-123 351.66 -123 352.32 -123 353 C-123.66 353 -124.32 353 -125 353 C-125 353.66 -125 354.32 -125 355 C-125.66 355 -126.32 355 -127 355 C-127 355.66 -127 356.32 -127 357 C-128.32 357 -129.64 357 -131 357 C-131 357.66 -131 358.32 -131 359 C-131.66 359 -132.32 359 -133 359 C-133 359.66 -133 360.32 -133 361 C-134.375 362.625 -134.375 362.625 -136 364 C-136.66 364 -137.32 364 -138 364 C-138 364.66 -138 365.32 -138 366 C-139.32 366 -140.64 366 -142 366 C-142 366.66 -142 367.32 -142 368 C-142.66 368 -143.32 368 -144 368 C-144 368.66 -144 369.32 -144 370 C-144.66 370 -145.32 370 -146 370 C-146 370.66 -146 371.32 -146 372 C-146.66 372 -147.32 372 -148 372 C-148 372.66 -148 373.32 -148 374 C-149.32 374 -150.64 374 -152 374 C-152 374.66 -152 375.32 -152 376 C-154.89845064 377.64840202 -156.96735684 378.24937583 -160.29370117 378.24291992 C-161.13104294 378.24599655 -161.9683847 378.24907318 -162.83110046 378.25224304 C-164.17347527 378.24146477 -164.17347527 378.24146477 -165.54296875 378.23046875 C-166.46717117 378.23001053 -167.3913736 378.22955231 -168.34358215 378.2290802 C-170.29278857 378.22606357 -172.2419927 378.21819491 -174.19116211 378.20581055 C-177.18677222 378.18750445 -180.18207406 378.18530127 -183.17773438 378.18554688 C-185.07031519 378.18063342 -186.9628939 378.17480586 -188.85546875 378.16796875 C-189.75645798 378.16685593 -190.6574472 378.1657431 -191.58573914 378.16459656 C-197.88393865 378.11606135 -197.88393865 378.11606135 -199 377 C-201.43445913 376.8525031 -203.84428567 376.76511465 -206.28125 376.71875 C-207.37427429 376.69113586 -207.37427429 376.69113586 -208.48937988 376.66296387 C-210.82616893 376.6040406 -213.16303173 376.55129346 -215.5 376.5 C-218.57307911 376.43254985 -221.64591316 376.35888207 -224.71875 376.28125 C-225.43228638 376.26767456 -226.14582275 376.25409912 -226.88098145 376.2401123 C-231.88719819 376.11280181 -231.88719819 376.11280181 -233 375 C-235.50716838 374.85243002 -237.99039049 374.7650766 -240.5 374.71875 C-241.62631836 374.69113586 -241.62631836 374.69113586 -242.77539062 374.66296387 C-245.18351187 374.60403696 -247.59170471 374.55129132 -250 374.5 C-253.16682444 374.4325537 -256.33341084 374.3588858 -259.5 374.28125 C-260.23541016 374.26767456 -260.97082031 374.25409912 -261.72851562 374.2401123 C-266.88719819 374.11280181 -266.88719819 374.11280181 -268 373 C-270.50716838 372.85243002 -272.99039049 372.7650766 -275.5 372.71875 C-276.62631836 372.69113586 -276.62631836 372.69113586 -277.77539062 372.66296387 C-280.18351187 372.60403696 -282.59170471 372.55129132 -285 372.5 C-288.16682444 372.4325537 -291.33341084 372.3588858 -294.5 372.28125 C-295.23541016 372.26767456 -295.97082031 372.25409912 -296.72851562 372.2401123 C-301.88719819 372.11280181 -301.88719819 372.11280181 -303 371 C-305.51880517 370.84011509 -308.01342266 370.74065775 -310.53515625 370.68359375 C-311.66503212 370.6524221 -311.66503212 370.6524221 -312.81773376 370.62062073 C-315.2325599 370.55504575 -317.64749798 370.49620379 -320.0625 370.4375 C-321.69597529 370.3943223 -323.3294391 370.35070827 -324.96289062 370.30664062 C-328.97514464 370.19935638 -332.98751164 370.09811179 -337 370 C-337 369.34 -337 368.68 -337 368 C-338.53708618 368.00785522 -338.53708618 368.00785522 -340.10522461 368.01586914 C-343.89395276 368.03391969 -347.68267709 368.0454322 -351.47143555 368.05493164 C-353.11369464 368.05997174 -354.75594923 368.06680378 -356.39819336 368.07543945 C-358.75375479 368.08751926 -361.10925709 368.09323139 -363.46484375 368.09765625 C-364.20339096 368.10281754 -364.94193817 368.10797882 -365.7028656 368.11329651 C-367.46898088 368.1134925 -369.23497146 368.06194719 -371 368 C-371.33 367.67 -371.66 367.34 -372 367 C-374.59153107 366.84003834 -377.1595202 366.74061303 -379.75390625 366.68359375 C-380.52935287 366.66281265 -381.3047995 366.64203156 -382.10374451 366.62062073 C-384.58990308 366.55504198 -387.07617045 366.49620201 -389.5625 366.4375 C-391.24415204 366.39432267 -392.92579294 366.35070864 -394.60742188 366.30664062 C-398.73816871 366.19935221 -402.86902536 366.09810868 -407 366 C-407 365.34 -407 364.68 -407 364 C-415.91 364 -424.82 364 -434 364 C-434 364.66 -434 365.32 -434 366 C-434.66 366 -435.32 366 -436 366 C-436 366.66 -436 367.32 -436 368 C-436.66 368 -437.32 368 -438 368 C-438 368.66 -438 369.32 -438 370 C-438.66 370 -439.32 370 -440 370 C-440 370.66 -440 371.32 -440 372 C-441.32 372 -442.64 372 -444 372 C-444 372.66 -444 373.32 -444 374 C-444.66 374 -445.32 374 -446 374 C-446.268125 374.598125 -446.53625 375.19625 -446.8125 375.8125 C-447.99917406 377.99847854 -449.09599113 379.41332594 -451 381 C-451.66 381 -452.32 381 -453 381 C-453 381.66 -453 382.32 -453 383 C-453.66 383 -454.32 383 -455 383 C-455 383.66 -455 384.32 -455 385 C-458 387 -458 387 -461 387 C-461 387.66 -461 388.32 -461 389 C-461.66 389 -462.32 389 -463 389 C-463.07476563 389.58265625 -463.14953125 390.1653125 -463.2265625 390.765625 C-464.26931302 393.77801539 -465.85274004 394.83993906 -468.375 396.75 C-469.16648437 397.36359375 -469.95796875 397.9771875 -470.7734375 398.609375 C-473 400 -473 400 -476 400 C-476 400.66 -476 401.32 -476 402 C-476.66 402 -477.32 402 -478 402 C-478 402.66 -478 403.32 -478 404 C-478.66 404 -479.32 404 -480 404 C-480 404.66 -480 405.32 -480 406 C-480.66 406 -481.32 406 -482 406 C-482.3403125 406.86625 -482.3403125 406.86625 -482.6875 407.75 C-484.34848222 410.59739809 -486.31524561 412.12067193 -489 414 C-489.66 414 -490.32 414 -491 414 C-491 414.66 -491 415.32 -491 416 C-491.66 416 -492.32 416 -493 416 C-493 416.66 -493 417.32 -493 418 C-494.32 418.33 -495.64 418.66 -497 419 C-497 419.66 -497 420.32 -497 421 C-497.66 421 -498.32 421 -499 421 C-499 421.66 -499 422.32 -499 423 C-499.66 423 -500.32 423 -501 423 C-501 423.66 -501 424.32 -501 425 C-501.66 425 -502.32 425 -503 425 C-503 425.66 -503 426.32 -503 427 C-503.99 427 -504.98 427 -506 427 C-506 427.66 -506 428.32 -506 429 C-506.66 429 -507.32 429 -508 429 C-508 429.66 -508 430.32 -508 431 C-508.66 431 -509.32 431 -510 431 C-510 431.66 -510 432.32 -510 433 C-510.66 433 -511.32 433 -512 433 C-512 433.66 -512 434.32 -512 435 C-513.32 435.33 -514.64 435.66 -516 436 C-516 436.66 -516 437.32 -516 438 C-516.66 438 -517.32 438 -518 438 C-518 438.66 -518 439.32 -518 440 C-518.99 440 -519.98 440 -521 440 C-521 440.66 -521 441.32 -521 442 C-521.66 442 -522.32 442 -523 442 C-523 442.66 -523 443.32 -523 444 C-523.66 444 -524.32 444 -525 444 C-525 444.66 -525 445.32 -525 446 C-525.66 446 -526.32 446 -527 446 C-527 446.66 -527 447.32 -527 448 C-527.66 448 -528.32 448 -529 448 C-529 448.66 -529 449.32 -529 450 C-529.66 450 -530.32 450 -531 450 C-531 450.66 -531 451.32 -531 452 C-531.969375 452.45375 -532.93875 452.9075 -533.9375 453.375 C-537.07079582 454.65786221 -537.07079582 454.65786221 -538 457 C-538.66 457 -539.32 457 -540 457 C-540 457.66 -540 458.32 -540 459 C-540.66 459 -541.32 459 -542 459 C-542 459.66 -542 460.32 -542 461 C-542.66 461 -543.32 461 -544 461 C-544 461.66 -544 462.32 -544 463 C-544.66 463 -545.32 463 -546 463 C-546 463.66 -546 464.32 -546 465 C-549 467 -549 467 -552 467 C-552 467.66 -552 468.32 -552 469 C-552.66 469 -553.32 469 -554 469 C-554 469.66 -554 470.32 -554 471 C-554.66 471 -555.32 471 -556 471 C-556.33 471.99 -556.66 472.98 -557 474 C-557.66 474 -558.32 474 -559 474 C-559 474.66 -559 475.32 -559 476 C-559.66 476 -560.32 476 -561 476 C-561 476.66 -561 477.32 -561 478 C-561.66 478 -562.32 478 -563 478 C-563 478.66 -563 479.32 -563 480 C-564.32 480 -565.64 480 -567 480 C-567 480.66 -567 481.32 -567 482 C-567.66 482 -568.32 482 -569 482 C-569 482.66 -569 483.32 -569 484 C-569.66 484 -570.32 484 -571 484 C-571 484.66 -571 485.32 -571 486 C-571.66 486 -572.32 486 -573 486 C-573.268125 486.598125 -573.53625 487.19625 -573.8125 487.8125 C-575.02300334 490.04237457 -575.991379 491.45490692 -578 493 C-579.32 493 -580.64 493 -582 493 C-582 493.66 -582 494.32 -582 495 C-582.66 495 -583.32 495 -584 495 C-584 495.66 -584 496.32 -584 497 C-584.66 497 -585.32 497 -586 497 C-586 497.66 -586 498.32 -586 499 C-586.66 499 -587.32 499 -588 499 C-588 499.66 -588 500.32 -588 501 C-588.66 501 -589.32 501 -590 501 C-590 501.66 -590 502.32 -590 503 C-590.66 503 -591.32 503 -592 503 C-592 503.66 -592 504.32 -592 505 C-592.66 505 -593.32 505 -594 505 C-594 505.66 -594 506.32 -594 507 C-594.99 507 -595.98 507 -597 507 C-597 507.66 -597 508.32 -597 509 C-598.32 509.33 -599.64 509.66 -601 510 C-601 510.66 -601 511.32 -601 512 C-601.66 512 -602.32 512 -603 512 C-603 512.66 -603 513.32 -603 514 C-603.66 514 -604.32 514 -605 514 C-605 514.66 -605 515.32 -605 516 C-605.66 516 -606.32 516 -607 516 C-607 516.66 -607 517.32 -607 518 C-607.66 518 -608.32 518 -609 518 C-609 518.66 -609 519.32 -609 520 C-609.99 520 -610.98 520 -612 520 C-612 520.66 -612 521.32 -612 522 C-612.66 522 -613.32 522 -614 522 C-614 522.66 -614 523.32 -614 524 C-614.66 524 -615.32 524 -616 524 C-616 524.66 -616 525.32 -616 526 C-616.66 526 -617.32 526 -618 526 C-618 526.66 -618 527.32 -618 528 C-619.32 528.33 -620.64 528.66 -622 529 C-622 529.66 -622 530.32 -622 531 C-622.66 531 -623.32 531 -624 531 C-624 531.66 -624 532.32 -624 533 C-625.32 533 -626.64 533 -628 533 C-628 533.66 -628 534.32 -628 535 C-632.60209225 535.17700355 -634.78370866 535.10814567 -639 533 C-639 511.88 -639 490.76 -639 469 C-638.34 469 -637.68 469 -637 469 C-637 468.34 -637 467.68 -637 467 C-636.34 467 -635.68 467 -635 467 C-635 466.34 -635 465.68 -635 465 C-634.34 465 -633.68 465 -633 465 C-633 464.34 -633 463.68 -633 463 C-632.34 463 -631.68 463 -631 463 C-631 462.34 -631 461.68 -631 461 C-630.34 461 -629.68 461 -629 461 C-629 460.34 -629 459.68 -629 459 C-628.34 459 -627.68 459 -627 459 C-626.67 458.01 -626.34 457.02 -626 456 C-625.34 456 -624.68 456 -624 456 C-624 455.34 -624 454.68 -624 454 C-623.34 454 -622.68 454 -622 454 C-622 453.34 -622 452.68 -622 452 C-621.34 452 -620.68 452 -620 452 C-620 451.34 -620 450.68 -620 450 C-619.34 450 -618.68 450 -618 450 C-618 449.34 -618 448.68 -618 448 C-617.34 448 -616.68 448 -616 448 C-616 447.34 -616 446.68 -616 446 C-615.34 446 -614.68 446 -614 446 C-614 445.34 -614 444.68 -614 444 C-613.34 444 -612.68 444 -612 444 C-612 443.34 -612 442.68 -612 442 C-611.34 442 -610.68 442 -610 442 C-610 441.34 -610 440.68 -610 440 C-608.625 438.375 -608.625 438.375 -607 437 C-606.34 437 -605.68 437 -605 437 C-605 436.34 -605 435.68 -605 435 C-604.34 435 -603.68 435 -603 435 C-603 434.34 -603 433.68 -603 433 C-602.34 433 -601.68 433 -601 433 C-601 432.34 -601 431.68 -601 431 C-600.34 431 -599.68 431 -599 431 C-599 430.34 -599 429.68 -599 429 C-598.34 429 -597.68 429 -597 429 C-597 428.34 -597 427.68 -597 427 C-596.34 427 -595.68 427 -595 427 C-595 426.34 -595 425.68 -595 425 C-594.34 425 -593.68 425 -593 425 C-593 424.34 -593 423.68 -593 423 C-592.34 423 -591.68 423 -591 423 C-590.67 422.01 -590.34 421.02 -590 420 C-589.34 420 -588.68 420 -588 420 C-588 419.34 -588 418.68 -588 418 C-587.34 418 -586.68 418 -586 418 C-586 417.34 -586 416.68 -586 416 C-585.34 416 -584.68 416 -584 416 C-584 415.34 -584 414.68 -584 414 C-583.34 414 -582.68 414 -582 414 C-582 413.34 -582 412.68 -582 412 C-581.34 412 -580.68 412 -580 412 C-580 411.34 -580 410.68 -580 410 C-579.34 410 -578.68 410 -578 410 C-578 409.34 -578 408.68 -578 408 C-577.34 408 -576.68 408 -576 408 C-576 407.34 -576 406.68 -576 406 C-575.34 406 -574.68 406 -574 406 C-574 405.34 -574 404.68 -574 404 C-573.34 404 -572.68 404 -572 404 C-571.67 403.01 -571.34 402.02 -571 401 C-570.34 401 -569.68 401 -569 401 C-569 400.34 -569 399.68 -569 399 C-568.34 399 -567.68 399 -567 399 C-567 398.34 -567 397.68 -567 397 C-566.34 397 -565.68 397 -565 397 C-565 396.34 -565 395.68 -565 395 C-564.34 395 -563.68 395 -563 395 C-563 394.34 -563 393.68 -563 393 C-562.34 393 -561.68 393 -561 393 C-561 392.34 -561 391.68 -561 391 C-560.34 391 -559.68 391 -559 391 C-559 390.34 -559 389.68 -559 389 C-558.34 389 -557.68 389 -557 389 C-557 388.34 -557 387.68 -557 387 C-556.34 387 -555.68 387 -555 387 C-555 386.34 -555 385.68 -555 385 C-554.34 385 -553.68 385 -553 385 C-552.67 384.01 -552.34 383.02 -552 382 C-551.34 382 -550.68 382 -550 382 C-550 381.34 -550 380.68 -550 380 C-549.34 380 -548.68 380 -548 380 C-548 379.34 -548 378.68 -548 378 C-547.34 378 -546.68 378 -546 378 C-546 377.34 -546 376.68 -546 376 C-545.34 376 -544.68 376 -544 376 C-544 375.34 -544 374.68 -544 374 C-543.34 374 -542.68 374 -542 374 C-542 373.34 -542 372.68 -542 372 C-541.34 372 -540.68 372 -540 372 C-540 371.34 -540 370.68 -540 370 C-539.34 370 -538.68 370 -538 370 C-538 369.34 -538 368.68 -538 368 C-537.34 368 -536.68 368 -536 368 C-535.67 367.01 -535.34 366.02 -535 365 C-534.34 365 -533.68 365 -533 365 C-533 364.34 -533 363.68 -533 363 C-532.34 363 -531.68 363 -531 363 C-531 362.34 -531 361.68 -531 361 C-530.34 361 -529.68 361 -529 361 C-529 360.34 -529 359.68 -529 359 C-528.34 359 -527.68 359 -527 359 C-527 358.34 -527 357.68 -527 357 C-526.34 357 -525.68 357 -525 357 C-525 356.34 -525 355.68 -525 355 C-524.34 355 -523.68 355 -523 355 C-523 354.34 -523 353.68 -523 353 C-522.34 353 -521.68 353 -521 353 C-521 352.34 -521 351.68 -521 351 C-520.34 351 -519.68 351 -519 351 C-519 350.34 -519 349.68 -519 349 C-518.34 349 -517.68 349 -517 349 C-516.67 348.01 -516.34 347.02 -516 346 C-515.34 346 -514.68 346 -514 346 C-514 345.34 -514 344.68 -514 344 C-513.34 344 -512.68 344 -512 344 C-512 343.34 -512 342.68 -512 342 C-511.34 342 -510.68 342 -510 342 C-510 341.34 -510 340.68 -510 340 C-509.34 340 -508.68 340 -508 340 C-508 339.34 -508 338.68 -508 338 C-507.34 338 -506.68 338 -506 338 C-506 337.34 -506 336.68 -506 336 C-505.34 336 -504.68 336 -504 336 C-504 335.34 -504 334.68 -504 334 C-503.34 334 -502.68 334 -502 334 C-502 333.34 -502 332.68 -502 332 C-501.34 332 -500.68 332 -500 332 C-500 331.34 -500 330.68 -500 330 C-499.34 330 -498.68 330 -498 330 C-497.67 329.01 -497.34 328.02 -497 327 C-496.34 327 -495.68 327 -495 327 C-495 326.34 -495 325.68 -495 325 C-494.34 325 -493.68 325 -493 325 C-493 324.34 -493 323.68 -493 323 C-492.34 323 -491.68 323 -491 323 C-490.34 321.35 -489.68 319.7 -489 318 C-488.34 318 -487.68 318 -487 318 C-487 317.34 -487 316.68 -487 316 C-486.34 316 -485.68 316 -485 316 C-485 315.34 -485 314.68 -485 314 C-484.34 314 -483.68 314 -483 314 C-482.7421875 313.42765625 -482.484375 312.8553125 -482.21875 312.265625 C-480.88634058 309.78871005 -479.34943882 307.8658834 -477.5 305.75 C-476.8915625 305.04359375 -476.283125 304.3371875 -475.65625 303.609375 C-474 302 -474 302 -472 302 C-472 301.34 -472 300.68 -472 300 C-471.34 300 -470.68 300 -470 300 C-470 299.34 -470 298.68 -470 298 C-469.34 298 -468.68 298 -468 298 C-468 297.34 -468 296.68 -468 296 C-467.34 296 -466.68 296 -466 296 C-466 295.34 -466 294.68 -466 294 C-464.01739574 292.31267723 -462.0167658 290.64633943 -460 289 C-459.67 288.34 -459.34 287.68 -459 287 C-458.34 287 -457.68 287 -457 287 C-457 286.34 -457 285.68 -457 285 C-456.34 285 -455.68 285 -455 285 C-455 284.34 -455 283.68 -455 283 C-454.34 283 -453.68 283 -453 283 C-453 282.34 -453 281.68 -453 281 C-452.34 281 -451.68 281 -451 281 C-451 280.34 -451 279.68 -451 279 C-450.34 279 -449.68 279 -449 279 C-449 278.34 -449 277.68 -449 277 C-448.34 277 -447.68 277 -447 277 C-447 276.34 -447 275.68 -447 275 C-440.491492 272.66139064 -434.25442051 272.65639138 -427.38623047 272.58935547 C-426.12837234 272.56955627 -424.87051422 272.54975708 -423.57453918 272.52935791 C-420.13831986 272.47551053 -416.70204656 272.43333768 -413.26564169 272.39335394 C-409.6534888 272.34936083 -406.04149695 272.29469208 -402.42947388 272.24124146 C-396.35865403 272.15286118 -390.2877757 272.07128172 -384.21679688 271.99462891 C-375.69454396 271.88702366 -367.17248513 271.76776339 -358.65042663 271.64583755 C-346.56376816 271.47349606 -334.47702667 271.30713365 -322.39013672 271.15185547 C-320.63932045 271.12851639 -320.63932045 271.12851639 -318.85313416 271.10470581 C-315.56878623 271.06346541 -312.28446491 271.03037118 -309 271 C-307.80717533 270.98534824 -306.61435066 270.97069649 -305.38537979 270.95560074 C-304.21890789 270.94649548 -303.05243599 270.93739021 -301.85061646 270.92800903 C-300.7996837 270.91777773 -299.74875095 270.90754642 -298.66597176 270.89700508 C-296 271 -296 271 -293 272 C-293 271.34 -293 270.68 -293 270 C-292.08767105 269.98969254 -291.1753421 269.97938507 -290.23536682 269.96876526 C-281.65609996 269.87096739 -273.07690493 269.76847872 -264.49775791 269.66066074 C-260.086666 269.60539168 -255.67556751 269.55196546 -251.2644043 269.50268555 C-247.01093013 269.45510055 -242.75753911 269.40276014 -238.50416374 269.34705925 C-236.87780757 269.32660902 -235.25142858 269.30790044 -233.62503242 269.29092598 C-231.35483637 269.26694073 -229.08479887 269.23687865 -226.81469727 269.20532227 C-224.87277245 269.18200584 -224.87277245 269.18200584 -222.89161682 269.15821838 C-220.10593983 269.32841258 -220.10593983 269.32841258 -219 268 C-217.4651703 267.90680551 -215.92607918 267.882542 -214.38842773 267.88647461 C-213.40748642 267.88655014 -212.4265451 267.88662567 -211.4158783 267.88670349 C-210.3492244 267.89186478 -209.2825705 267.89702606 -208.18359375 267.90234375 C-206.55430687 267.90446617 -206.55430687 267.90446617 -204.8921051 267.90663147 C-201.40720925 267.91224952 -197.92237658 267.92480508 -194.4375 267.9375 C-192.08138113 267.94251267 -189.72526126 267.94707598 -187.36914062 267.95117188 C-181.57940536 267.96222481 -175.78970719 267.97898049 -170 268 C-170 267.34 -170 266.68 -170 266 C-169.34 266 -168.68 266 -168 266 C-167.7628125 265.43796875 -167.525625 264.8759375 -167.28125 264.296875 C-165.71052303 261.48105958 -163.78528536 259.52044584 -161.5 257.25 C-160.7059375 256.45078125 -159.911875 255.6515625 -159.09375 254.828125 C-157 253 -157 253 -155 253 C-155 252.34 -155 251.68 -155 251 C-154.34 251 -153.68 251 -153 251 C-152.731875 250.4225 -152.46375 249.845 -152.1875 249.25 C-150.97070811 246.94449957 -149.69666121 244.97943808 -148 243 C-147.34 243 -146.68 243 -146 243 C-146 242.34 -146 241.68 -146 241 C-145.34 241 -144.68 241 -144 241 C-144 240.34 -144 239.68 -144 239 C-143.34 239 -142.68 239 -142 239 C-142 238.34 -142 237.68 -142 237 C-141.34 237 -140.68 237 -140 237 C-140 236.34 -140 235.68 -140 235 C-138.68 234.67 -137.36 234.34 -136 234 C-136 233.34 -136 232.68 -136 232 C-135.34 232 -134.68 232 -134 232 C-133.67 230.68 -133.34 229.36 -133 228 C-132.34 228 -131.68 228 -131 228 C-131 227.34 -131 226.68 -131 226 C-130.34 226 -129.68 226 -129 226 C-129 225.34 -129 224.68 -129 224 C-128.34 224 -127.68 224 -127 224 C-127 223.34 -127 222.68 -127 222 C-126.34 222 -125.68 222 -125 222 C-125 221.34 -125 220.68 -125 220 C-124.34 220 -123.68 220 -123 220 C-123 219.34 -123 218.68 -123 218 C-121.02 217.505 -121.02 217.505 -119 217 C-119 216.34 -119 215.68 -119 215 C-118.34 215 -117.68 215 -117 215 C-117 214.34 -117 213.68 -117 213 C-116.34 213 -115.68 213 -115 213 C-114.67 211.68 -114.34 210.36 -114 209 C-113.34 209 -112.68 209 -112 209 C-112 208.34 -112 207.68 -112 207 C-111.34 207 -110.68 207 -110 207 C-110 206.34 -110 205.68 -110 205 C-109.34 205 -108.68 205 -108 205 C-108 204.34 -108 203.68 -108 203 C-107.34 203 -106.68 203 -106 203 C-106 202.34 -106 201.68 -106 201 C-105.34 201 -104.68 201 -104 201 C-104 200.34 -104 199.68 -104 199 C-102.02 198.505 -102.02 198.505 -100 198 C-100 197.34 -100 196.68 -100 196 C-99.34 196 -98.68 196 -98 196 C-97.67 194.68 -97.34 193.36 -97 192 C-96.34 192 -95.68 192 -95 192 C-95 191.34 -95 190.68 -95 190 C-94.34 190 -93.68 190 -93 190 C-93 189.34 -93 188.68 -93 188 C-92.34 188 -91.68 188 -91 188 C-91 187.34 -91 186.68 -91 186 C-90.34 186 -89.68 186 -89 186 C-89 185.34 -89 184.68 -89 184 C-88.34 184 -87.68 184 -87 184 C-87 183.34 -87 182.68 -87 182 C-86.34 182 -85.68 182 -85 182 C-85 181.34 -85 180.68 -85 180 C-83.02 179.505 -83.02 179.505 -81 179 C-81 178.34 -81 177.68 -81 177 C-80.34 177 -79.68 177 -79 177 C-78.67 175.68 -78.34 174.36 -78 173 C-77.34 173 -76.68 173 -76 173 C-76 172.34 -76 171.68 -76 171 C-75.34 171 -74.68 171 -74 171 C-73.71125 170.401875 -73.4225 169.80375 -73.125 169.1875 C-72 167 -72 167 -70 164 C-69.34 164 -68.68 164 -68 164 C-68 163.34 -68 162.68 -68 162 C-67.34 162 -66.68 162 -66 162 C-66 161.34 -66 160.68 -66 160 C-65.34 160 -64.68 160 -64 160 C-64 159.34 -64 158.68 -64 158 C-63.34 158 -62.68 158 -62 158 C-62 157.34 -62 156.68 -62 156 C-61.34 156 -60.68 156 -60 156 C-59.731875 155.4225 -59.46375 154.845 -59.1875 154.25 C-57.97070811 151.94449957 -56.69666121 149.97943808 -55 148 C-54.34 148 -53.68 148 -53 148 C-53 147.34 -53 146.68 -53 146 C-49.53846154 143 -49.53846154 143 -47 143 C-47 142.34 -47 141.68 -47 141 C-46.34 141 -45.68 141 -45 141 C-45 140.34 -45 139.68 -45 139 C-44.34 139 -43.68 139 -43 139 C-42.67 137.68 -42.34 136.36 -42 135 C-41.34 135 -40.68 135 -40 135 C-40 134.34 -40 133.68 -40 133 C-39.34 133 -38.68 133 -38 133 C-38 132.34 -38 131.68 -38 131 C-37.34 131 -36.68 131 -36 131 C-36 130.34 -36 129.68 -36 129 C-35.34 129 -34.68 129 -34 129 C-34 128.34 -34 127.68 -34 127 C-33.34 127 -32.68 127 -32 127 C-32 126.34 -32 125.68 -32 125 C-30.68 124.67 -29.36 124.34 -28 124 C-28 123.34 -28 122.68 -28 122 C-27.34 122 -26.68 122 -26 122 C-26 121.34 -26 120.68 -26 120 C-25.34 120 -24.68 120 -24 120 C-23.67 118.68 -23.34 117.36 -23 116 C-22.34 116 -21.68 116 -21 116 C-21 115.34 -21 114.68 -21 114 C-20.34 114 -19.68 114 -19 114 C-19 113.34 -19 112.68 -19 112 C-18.34 112 -17.68 112 -17 112 C-17 111.34 -17 110.68 -17 110 C-16.34 110 -15.68 110 -15 110 C-15 109.34 -15 108.68 -15 108 C-14.34 108 -13.68 108 -13 108 C-13 107.34 -13 106.68 -13 106 C-11.68 105.67 -10.36 105.34 -9 105 C-9 104.34 -9 103.68 -9 103 C-8.34 103 -7.68 103 -7 103 C-6.67 101.68 -6.34 100.36 -6 99 C-5.34 99 -4.68 99 -4 99 C-4 98.34 -4 97.68 -4 97 C-3.34 97 -2.68 97 -2 97 C-2 96.34 -2 95.68 -2 95 C-1.34 95 -0.68 95 0 95 C0 94.34 0 93.68 0 93 C0.66 93 1.32 93 2 93 C2 92.34 2 91.68 2 91 C2.66 91 3.32 91 4 91 C4 90.34 4 89.68 4 89 C4.66 89 5.32 89 6 89 C6 88.34 6 87.68 6 87 C7.32 86.67 8.64 86.34 10 86 C10 85.34 10 84.68 10 84 C10.66 84 11.32 84 12 84 C12.33 82.68 12.66 81.36 13 80 C13.66 80 14.32 80 15 80 C15 79.34 15 78.68 15 78 C15.66 78 16.32 78 17 78 C17 77.34 17 76.68 17 76 C17.66 76 18.32 76 19 76 C19 75.34 19 74.68 19 74 C19.66 74 20.32 74 21 74 C21 73.34 21 72.68 21 72 C21.66 72 22.32 72 23 72 C23 71.34 23 70.68 23 70 C24.6454378 68.31237149 26.31288577 66.6459651 28 65 C28.33 64.34 28.66 63.68 29 63 C29.66 63 30.32 63 31 63 C31 62.34 31 61.68 31 61 C31.66 60.67 32.32 60.34 33 60 C33.65555119 57.47266765 33.65555119 57.47266765 34 55 C33.34 55 32.68 55 32 55 C31.67 53.68 31.34 52.36 31 51 C30.34 51 29.68 51 29 51 C29 50.01 29 49.02 29 48 C28.34 48 27.68 48 27 48 C27 47.34 27 46.68 27 46 C26.34 46 25.68 46 25 46 C25 45.34 25 44.68 25 44 C24.34 44 23.68 44 23 44 C23 43.34 23 42.68 23 42 C22.34 42 21.68 42 21 42 C21 41.34 21 40.68 21 40 C20.34 40 19.68 40 19 40 C19 38.68 19 37.36 19 36 C18.34 36 17.68 36 17 36 C17 35.34 17 34.68 17 34 C16.34 34 15.68 34 15 34 C15 33.34 15 32.68 15 32 C14.34 32 13.68 32 13 32 C10.70351351 29.4385343 10 28.52032428 10 25 C9.34 25 8.68 25 8 25 C8 24.34 8 23.68 8 23 C7.34 23 6.68 23 6 23 C6 22.34 6 21.68 6 21 C5.34 21 4.68 21 4 21 C4 20.34 4 19.68 4 19 C3.34 19 2.68 19 2 19 C2 18.34 2 17.68 2 17 C1.34 17 0.68 17 0 17 C-0.2475 16.05125 -0.495 15.1025 -0.75 14.125 C-1.6857077 10.91306809 -1.6857077 10.91306809 -4.125 9.625 C-4.74375 9.41875 -5.3625 9.2125 -6 9 C-6 7.35 -6 5.7 -6 4 C-5.34 4 -4.68 4 -4 4 C-4 3.34 -4 2.68 -4 2 C-2.68 2 -1.36 2 0 2 C0 1.34 0 0.68 0 0 Z" fill="#EC7922" transform="translate(1167,35)"/>
</svg>
